<svg version="1.1" id="Calque_1" xmlns="http://www.w3.org/2000/svg" x="0px" y="0px" viewBox="0 0 841.9 595.3" style="enable-background:new 0 0 841.9 595.3" xml:space="preserve"><style>.st1{fill:#0D4595}</style><polygon points="316.3,384.4 541.6,167.9 316.3,167.9" style="fill:#FDFC42"/><polygon class="st1" points="541.6,167.9 316.3,384.4 541.6,384.4"/><path d="M527.9,33.6c2.8,1,5.3,2.5,7.5,4.5c6,5.7,7.8,15,5.1,22.8c-2.7,7.8-9.4,13.9-17.1,16.6 c-14.7,5.1-35.7-0.5-33.5-19.5c0.8-7.4,5.4-14,11.3-18.6c4.9-3.9,10.8-6.6,17-7C521.5,32.1,524.8,32.5,527.9,33.6z" style="fill:#FC1C05"/><g><path d="M543,146.8c-0.9-7.7-3.7-14.9-9.3-20.3c-7.3-7.1-18.1-9.6-28.2-8.7s-19.7,4.7-28.9,9 c-52.9,24.4-98.4,62-143.2,99.2c35.1-24.2,71.4-49,112.9-58.6c5.2-1.2,10.8-2.1,15.7,0.1c10,4.5,10.7,18.5,8.1,29.2 c-6.1,25.6-21,48.2-37.6,68.5c-41.2,50.3-94.1,89.5-149.6,122.6c-15.8,9.4-31.8,19.2-48.4,27.2c31.7-12,64.9-20,96.4-33 c31.3-12.9,61.7-28.2,89.7-47.3c56.5-38.5,103.6-94.2,119.9-160.6C542.7,165.3,544,155.7,543,146.8z M314.9,369.1 c-1.3,1.3-3,2-4.6,2.9C312,371.1,313.7,370.3,314.9,369.1z M373.2,361.7c0.2-0.4,0.5-0.7,0.9-1 C373.7,361,373.4,361.3,373.2,361.7z M523.9,214.4c0,0.1,0,0.3,0.1,0.4C523.9,214.7,523.9,214.5,523.9,214.4z M538.3,174.7 c0-0.1,0.1-0.2,0.2-0.3C538.4,174.5,538.3,174.6,538.3,174.7z" style="fill:#FF0000"/></g><g><path class="st1" d="M62,457.6c2,0,3.5-1.5,3.5-3.5c0-1.9-1.6-3.4-3.5-3.4c-1.9,0-3.4,1.5-3.4,3.4C58.6,456.1,60.1,457.6,62,457.6 z"/><path class="st1" d="M70.1,457.6c1.9,0,3.5-1.5,3.5-3.5c0-1.9-1.6-3.4-3.5-3.4c-1.9,0-3.4,1.5-3.4,3.4 C66.7,456.1,68.2,457.6,70.1,457.6z"/><path class="st1" d="M129,491.2c-1.9,0-3.5,1.6-3.5,3.4c0,2,1.6,3.5,3.5,3.5c1.9,0,3.4-1.5,3.4-3.5 C132.4,492.7,130.8,491.2,129,491.2z"/><path class="st1" d="M136.7,491.2c-1.9,0-3.4,1.6-3.4,3.4c0,2,1.6,3.5,3.4,3.5s3.5-1.5,3.5-3.5 C140.2,492.7,138.6,491.2,136.7,491.2z"/><path class="st1" d="M153.9,474.4c0-4.3,1.9-7.4,5.5-7.4c2.1,0,7.1,1,9,7l0.9-2.1c0.4-1,0.6-1.9,0.6-2.8c-0.9-5-5.8-7.1-10-7.1 c-7.9,0-12.1,5.9-12.1,13.2c0,2.3,0.5,4.5,1.5,6.4h-5.2c-4.5,0-6.1-1.9-6.3-6.1v-3.7c0-3.1-1.6-4.7-4.7-4.7h-2.2v9.9 c0,2.8-1.1,4.3-3.9,4.5h-0.8h-1.8h-5.1h-0.9h-6h-0.9h-6h-0.9h-6h-0.9h-6H91h-5.8h-1.1H81h-2.8l0.1-5.2c0.1-7-3.4-14.3-11.8-14.3 c-7.9,0-12.1,5.9-12.1,13.2c0,10.7,9.7,12.2,17,12.4c3.7-0.2,14.2,0,13.9-0.1H91h0.9h6h0.9h6h0.9h6h0.9h6h0.9h5.1h1.8h1.3 c3.3-0.1,5.8-1.1,7.5-2.8c1.9,1.6,4.4,2.6,7.5,2.8v0h1.3h0.2h24.3c2.1,0,3.5-1.8,3.5-3.3v-2.7h-15.4 C154.7,480.3,153.9,477.9,153.9,474.4z M72.2,481.6c-4-0.1-11.9,0.8-11.9-7.1c0-4.3,1.9-7.4,5.6-7.4c5.8,0,6.4,5.1,6.4,10.1 C72.3,478.8,72.2,480.3,72.2,481.6z"/><path class="st1" d="M263.9,462.9c1.9,0,3.5-1.5,3.5-3.4c0-2-1.6-3.5-3.5-3.5c-1.9,0-3.4,1.5-3.4,3.5 C260.5,461.4,262,462.9,263.9,462.9z"/><path class="st1" d="M256.1,462.9c1.9,0,3.4-1.5,3.4-3.4c0-2-1.6-3.5-3.4-3.5c-1.9,0-3.5,1.5-3.5,3.5 C252.6,461.4,254.2,462.9,256.1,462.9z"/><path class="st1" d="M283.9,491.2c-2,0-3.4,1.6-3.4,3.4c0,2,1.4,3.5,3.4,3.5c1.9,0,3.4-1.5,3.4-3.5 C287.3,492.7,285.7,491.2,283.9,491.2z"/><path class="st1" d="M281.7,462.1c-8.6,0-9.7,3.1-9.7,7.1v2.3c2.6-2.5,5-3.4,8.3-3.4c7.3,0,10.1,9.6,11,13.4h-21.5 c-4.5-0.1-6.1-1.9-6.3-6.1v-3.7c0-3.1-1.6-4.7-4.7-4.7h-2.2v9.9c0,2.8-1.1,4.3-3.9,4.5h-0.5h-0.6c-5,0-7-1.7-7-6.3 c0-7.3-4.3-13.1-12.1-13.1c-7.2,0-11.6,5.8-11.6,12.2c-0.1,5.3-1.6,7.3-7.1,7.3h-0.6h-4.2h-0.9h-6h-0.9h-6h-0.9h-6.3h-0.6h-0.1 c-2.4-0.2-3.5-1.4-3.8-3.4v-23.3c0-2.1-2-3.5-3.8-3.5h-3.1v26c0,5.6,3.4,10,10.3,10.2h0.6h0.6h6.3h0.9h6h0.9h6h0.9h4.2h1.6h1.1v0 c3.6-0.2,6.4-1.3,8.4-3.4c2.1,2.2,5.1,3.5,8.7,3.5c3.4,0,6.2-1.3,8.2-3.4c2.1,2.2,5,3.2,8.8,3.3v0h0.5h1.6h1 c3.3-0.1,5.8-1.1,7.5-2.8c1.9,1.7,4.5,2.6,7.8,2.8v0h1h0.2H288c4.3,0.3,8.2,1.4,9.4,3.8c0.4-1.7,0.5-3.6,0.5-5.6 C297.8,475.5,293.5,462.1,281.7,462.1z M232.7,482.5c-3.8,0-5.6-3-5.6-7.3c0-5.1,1.9-8.1,6.2-8.1c3.7,0,5.5,3,5.5,7.3 C238.8,479.5,237,482.5,232.7,482.5z"/><path class="st1" d="M329.5,451.2h-2.2v25.9c0,2.7-1,4.3-3.9,4.5H317v-26.9c0-2-2.2-3.4-3.8-3.4H310v30.4h-6.8v1.7 c0,2.8,1.6,4.3,5.1,4.3h15.8c6.8-0.2,10.2-4.6,10.2-10.2v-21.5C334.3,452.8,332.7,451.2,329.5,451.2z"/><path class="st1" d="M307.2,494.3c0-1.1,0.4-1.9,1.3-1.9c0.6,0,2,0.4,2.6,2.8c0.2-0.8,0.8-1.5,0.8-2.4c-0.4-1.7-1.9-2.4-3.2-2.4 c-2.5,0-3.8,1.9-3.8,4.1c0,0.6,0,1.1,0.2,1.6h-1.8v1.1c0,0.6,0.5,1.3,1.3,1.3h6.6c0.8,0,1.3-0.7,1.3-1.3v-1.1h-4.7 C307.3,495.8,307.2,495.1,307.2,494.3z"/><path class="st1" d="M345.1,451.4h-3.1V483c0,3.2,2,4.6,4.1,4.6h2.8v-32.8C349,452.8,346.9,451.4,345.1,451.4z"/><path class="st1" d="M385.4,457.6c1.9,0,3.5-1.5,3.5-3.5c0-1.9-1.6-3.4-3.5-3.4c-1.9,0-3.4,1.5-3.4,3.4 C382,456.1,383.5,457.6,385.4,457.6z"/><path class="st1" d="M377.3,457.6c2,0,3.5-1.5,3.5-3.5c0-1.9-1.6-3.4-3.5-3.4c-1.9,0-3.4,1.5-3.4,3.4 C373.9,456.1,375.4,457.6,377.3,457.6z"/><path class="st1" d="M445.1,491.2c-1.9,0-3.4,1.6-3.4,3.4c0,2,1.6,3.5,3.4,3.5c1.9,0,3.5-1.5,3.5-3.5 C448.6,492.7,447,491.2,445.1,491.2z"/><path class="st1" d="M437.4,491.2c-1.9,0-3.5,1.6-3.5,3.4c0,2,1.6,3.5,3.5,3.5c1.9,0,3.4-1.5,3.4-3.5 C440.8,492.7,439.2,491.2,437.4,491.2z"/><path class="st1" d="M517.3,463.3c1.6,0,3.4-1.6,3.4-3.5s-1.6-3.4-3.4-3.4c-2,0-3.4,1.5-3.4,3.4S515.4,463.3,517.3,463.3z"/><path class="st1" d="M531.1,462.9c1.9,0,3.4-1.5,3.4-3.4c0-2-1.6-3.5-3.4-3.5c-1.9,0-3.5,1.5-3.5,3.5 C527.6,461.4,529.2,462.9,531.1,462.9z"/><path class="st1" d="M538.9,462.9c1.9,0,3.5-1.5,3.5-3.4c0-2-1.6-3.5-3.5-3.5c-1.9,0-3.4,1.5-3.4,3.5 C535.5,461.4,537,462.9,538.9,462.9z"/><path class="st1" d="M551,451.3h-2.2v25.7c0,2.7-1,4.3-3.8,4.5h-0.1c-4.5-0.1-6.1-1.9-6.3-6.1v-3.7c0-3.1-1.6-4.7-4.7-4.7h-2.2 v9.9c0,2.8-1.1,4.3-3.9,4.5H527c-4.5-0.1-6.1-1.9-6.3-6.1v-3.7c0-3.1-1.6-4.7-4.7-4.7h-2.2v9.9c0,2.8-1.1,4.3-3.9,4.5h-0.5h-0.6 c-5,0-7-1.7-7-6.3c0-7.3-4.3-13.1-12.1-13.1c-7.2,0-11.6,5.8-11.6,12.2c-0.1,5.3-1.6,7.3-7.1,7.3h-0.6h-4.2h-0.9h-6h-0.9h-6 c-4.5,0-6.1-1.9-6.3-6.1v-3.7c0-3.1-1.6-4.7-4.7-4.7h-2.2v9.9c0,2.8-1.1,4.3-3.9,4.5h-0.8H433h-5.1H427h-6h-0.9h-6h-0.9h-6h-0.9 h-5.8h-1.1h-3.1h-2.8l0.1-5.2c0.1-7-3.4-14.3-11.8-14.3c-7.9,0-12.1,5.9-12.1,13.2c0,10.7,9.7,12.2,17,12.4 c3.7-0.2,14.2,0,13.9-0.1h5.8h0.9h6h0.9h6h0.9h6h0.9h5.1h1.8h1.3c3.3-0.1,5.8-1.1,7.5-2.8c2,1.7,4.7,2.7,8.1,2.8v0h0.7h0.2h6h0.9 h6h0.9h4.2h1.6h1.1v0c3.6-0.2,6.4-1.3,8.4-3.4c2.1,2.2,5.1,3.5,8.7,3.5c3.4,0,6.2-1.3,8.2-3.4c2.1,2.2,5,3.2,8.8,3.3v0h0.5h1.6h1 c3.3-0.1,5.8-1.1,7.5-2.8c1.8,1.6,4.2,2.5,7.2,2.8v0.1h1.6h0.2h1.3c3.3-0.1,5.8-1.1,7.5-2.8c1.9,1.6,4.4,2.6,7.5,2.8v0h1.3h0.2 h0.7c6.9-0.2,10.3-4.6,10.3-10.2V456C555.7,452.9,554.1,451.3,551,451.3z M387.5,481.6c-4-0.1-11.9,0.8-11.9-7.1 c0-4.3,1.9-7.4,5.6-7.4c5.8,0,6.4,5.1,6.4,10.1C387.6,478.8,387.5,480.3,387.5,481.6z M489.9,482.5c-3.8,0-5.6-3-5.6-7.3 c0-5.1,1.9-8.1,6.2-8.1c3.7,0,5.5,3,5.5,7.3C495.9,479.5,494.1,482.5,489.9,482.5z"/><path class="st1" d="M565.4,451.4h-3.1V483c0,3.2,2,4.6,4.1,4.6h2.8v-32.8C569.2,452.8,567.1,451.4,565.4,451.4z"/><path class="st1" d="M605.7,457.6c1.9,0,3.5-1.5,3.5-3.5c0-1.9-1.6-3.4-3.5-3.4c-1.9,0-3.4,1.5-3.4,3.4 C602.2,456.1,603.8,457.6,605.7,457.6z"/><path class="st1" d="M597.6,457.6c2,0,3.5-1.5,3.5-3.5c0-1.9-1.6-3.4-3.5-3.4c-1.9,0-3.4,1.5-3.4,3.4 C594.2,456.1,595.7,457.6,597.6,457.6z"/><path class="st1" d="M688.8,451.3h-2.2v25.7c0,2.7-1,4.3-3.8,4.5h-0.1h-1.5h-5.4h-0.9h-6h-0.9h-6H661h-6h-0.9h-6h-0.9h-6h-0.9h-6 h-0.9h-6h-0.9h-5.8h-1.1h-3.1h-2.8l0.1-5.2c0.1-7-3.4-14.3-11.8-14.3c-7.9,0-12.1,5.9-12.1,13.2c0,10.7,9.7,12.2,17,12.4 c3.7-0.2,14.2,0,13.9-0.1h5.8h0.9h6h0.9h6h0.9h6h0.9h6h0.9h6h0.9h6h0.9h6h0.9h5.4h1.5h0.7c6.9-0.2,10.3-4.6,10.3-10.2V456 C693.5,452.9,691.9,451.3,688.8,451.3z M607.8,481.6c-4-0.1-11.9,0.8-11.9-7.1c0-4.3,1.9-7.4,5.6-7.4c5.8,0,6.4,5.1,6.4,10.1 C607.8,478.8,607.8,480.3,607.8,481.6z"/><path class="st1" d="M735.1,469L735.1,469C735,469,735,469,735.1,469L735.1,469z"/><path class="st1" d="M757.3,445l-22.7,17c-1.2,0.9-1.7,2.1-1.7,3.1c0,0.8,0.3,1.5,0.8,2.1l1.4,1.8c1.1-0.2,2-0.2,2.9-0.2 c2.1,0,4,0.5,6,1.8c0.2,0.1,5.3,3.4,5.3,11h-17.9h-1.5h-5.4h-0.9h-6h-0.9h-6.3h-0.6h-0.1c-2.4-0.2-3.5-1.4-3.8-3.4v-23.3 c0-2.1-2-3.5-3.8-3.5h-3.1v26c0,5.6,3.4,10,10.3,10.2h0.6h0.6h6.3h0.9h6h0.9h5.4h1.5h24.1v-6c0-7.9-4-12.5-4.9-13.6 c-2.5-3.1-6.5-3.9-6.4-3.9c-0.8-0.2-1.5-0.4-2.2-0.4l16.4-12.3c0.7-0.5,1-1.5,1-2.3s-0.2-1.6-0.6-2L757.3,445z"/><path class="st1" d="M787,471.6c-0.7-3.7-3.1-7.3-6.9-8.8v0.1c-1.3-0.5-2.8-0.8-4.4-0.8c-7.9,0-12.1,5.9-12.1,13.2 c0,10.7,9.7,12.2,17,12.4c-1.5,2.8-5.2,5.2-13.3,5.4v2.2c0,1.6,1.6,2.9,4.2,2.9c12.3,0,15.7-8,15.8-12.3l0.1-9.4 C787.6,474.7,787.3,473.1,787,471.6z M777.9,481.6c-3.9,0-8.3-0.7-8.3-7.2c0-4.3,1.9-7.4,5.6-7.4c7,0,6.1,8.6,6.4,14.5 C780.5,481.6,779.2,481.6,777.9,481.6z"/></g><g><path class="st1" d="M86.3,549.4c0.2,0.8,0.3,1.5,0.2,2s-0.3,1-0.7,1.3c-0.3,0.3-0.8,0.5-1.3,0.7c-0.5,0.1-1.1,0.2-1.7,0.2h-2.7 c-0.3-1.5-0.6-2.9-0.9-4.3s-0.6-2.7-1-4.1H63.7c-0.3,1.3-0.6,2.7-1,4.1c-0.3,1.4-0.6,2.8-0.9,4.3h-2.7c-0.6,0-1.2-0.1-1.7-0.2 c-0.5-0.1-0.9-0.3-1.3-0.7c-0.3-0.3-0.6-0.8-0.7-1.3c-0.1-0.5-0.1-1.2,0.2-2c0.8-3.2,1.6-6.2,2.6-9c0.9-2.8,1.9-5.3,2.8-7.6 c0.9-2.3,1.8-4.3,2.7-6.1c0.8-1.8,1.6-3.2,2.2-4.4c0.5-1,1.3-1.7,2.2-2.2c1-0.4,1.9-0.7,2.8-0.8c1.1-0.1,2.2-0.1,3.4,0.1 c1.4,2.4,2.8,5.2,4.2,8.3c1.2,2.7,2.5,5.8,3.9,9.4C83.9,540.8,85.2,544.9,86.3,549.4z M77,540.8c-0.7-2.4-1.5-4.7-2.2-6.7 c-0.7-2-1.3-3.7-1.9-5.1c-0.6-1.7-1.3-3.1-1.9-4.4c-0.6,1.3-1.2,2.7-1.9,4.4c-0.6,1.4-1.3,3.1-2,5.1c-0.7,2-1.4,4.2-2.1,6.7H77z"/><path class="st1" d="M112.8,528.9v21.3c0,2.3-0.3,4.3-1,5.9c-0.7,1.6-1.6,2.9-2.7,3.9c-1.1,1-2.4,1.7-3.8,2.2 c-1.4,0.5-2.9,0.7-4.4,0.7c-1.3,0-2.6-0.1-3.9-0.2c-1.3-0.2-2.4-0.3-3.4-0.6c-1.2-0.2-2.3-0.5-3.3-0.8c0.1-1.5,0.5-2.5,1.2-3 c0.6-0.5,1.4-0.7,2.4-0.7c0.9,0,2,0.1,3.2,0.4c1.2,0.2,2.4,0.4,3.7,0.4c0.8,0,1.6-0.2,2.3-0.5s1.3-0.8,1.8-1.4 c0.5-0.7,0.9-1.5,1.2-2.5c0.3-1,0.4-2.3,0.4-3.8v-1.4c-0.4,0.4-0.8,0.7-1.4,1.1c-0.5,0.3-1,0.5-1.7,0.7c-0.7,0.2-1.5,0.4-2.5,0.4 c-1.6,0.1-3.1,0-4.5-0.4c-1.5-0.4-2.8-1-3.9-1.9c-1.1-0.9-2-2.1-2.7-3.6c-0.7-1.5-1-3.4-1-5.6c0-1.7,0.3-3.2,0.8-4.6 c0.5-1.4,1.3-2.7,2.3-3.7c1-1,2.3-1.8,3.8-2.3c1.5-0.5,3.3-0.7,5.3-0.5c1.7,0.2,3,0.6,3.9,1.3c1,0.7,1.7,1.2,2,1.6 c0.3-1,0.8-1.6,1.5-1.9c0.7-0.3,1.6-0.5,2.7-0.5L112.8,528.9L112.8,528.9z M106.3,540c0.1-1.4,0.1-2.5-0.2-3.4 c-0.3-0.9-0.7-1.6-1.2-2.1c-0.5-0.5-1.1-0.9-1.7-1.1c-0.6-0.2-1.2-0.3-1.7-0.4c-0.5,0-1,0-1.7,0.1c-0.7,0.1-1.3,0.3-2,0.7 c-0.7,0.4-1.3,1-1.8,1.8c-0.5,0.8-0.8,2-1,3.4c-0.2,1.6-0.1,2.9,0.2,3.8c0.3,1,0.8,1.7,1.3,2.2c0.5,0.5,1.1,0.9,1.7,1 c0.6,0.2,1.2,0.3,1.7,0.3c0.5,0,1.1,0,1.7-0.1c0.7-0.1,1.3-0.4,2-0.8c0.6-0.4,1.2-1.1,1.7-2C105.8,542.6,106.1,541.4,106.3,540z"/><path class="st1" d="M140.2,536.7c0,1.3-0.3,2.5-0.9,3.6c-0.5,1.1-1.5,2-2.7,2.7c-1.3,0.7-3,1.1-5.1,1.2c-2.1,0.1-4.7-0.1-7.9-0.8 c0.3,2.2,0.9,3.8,1.9,4.7c1,1,2.2,1.4,3.7,1.5c1.5,0,2.8-0.1,4-0.2c1.2-0.1,2.2-0.2,3.1-0.1c0.8,0.1,1.5,0.3,1.9,0.7 c0.4,0.4,0.6,1.2,0.6,2.4c-0.7,0.3-1.6,0.6-2.6,0.8c-0.8,0.2-1.9,0.4-3.1,0.6c-1.2,0.2-2.6,0.2-4.2,0.2c-1.5,0-2.9-0.2-4.4-0.7 c-1.4-0.5-2.7-1.2-3.8-2.2c-1.1-1-2-2.3-2.7-3.9c-0.7-1.6-1-3.6-1-5.9s0.3-4.3,1-5.9c0.7-1.6,1.6-2.9,2.7-3.9 c1.1-1,2.4-1.7,3.8-2.2s2.9-0.8,4.4-0.9c1.4-0.1,2.7,0,4.1,0.3c1.4,0.3,2.6,0.8,3.7,1.5c1.1,0.7,1.9,1.6,2.6,2.7 C140,534,140.3,535.3,140.2,536.7z M123.6,539.2c1.4,0.4,2.8,0.6,4,0.8c1.2,0.1,2.3,0.1,3.2-0.1c0.9-0.2,1.7-0.5,2.2-1.1 c0.6-0.5,0.9-1.2,1-2.1c0.1-1.1-0.2-2.1-1-2.9c-0.8-0.8-2.1-1.2-3.9-1.1c-1.5,0.1-2.7,0.6-3.7,1.6 C124.5,535.3,123.9,536.9,123.6,539.2z"/><path class="st1" d="M156.4,528.4c1.4-0.1,2.8,0.1,4.2,0.5c1.4,0.4,2.7,1.2,3.8,2.2s2.1,2.4,2.8,4.1c0.7,1.7,1.1,3.7,1.1,6v12.3 h-1.9c-0.6,0-1.2-0.1-1.7-0.2c-0.5-0.1-1-0.3-1.4-0.6s-0.7-0.8-0.9-1.3c-0.2-0.5-0.3-1.2-0.3-2.1v-7.9c0-1.6-0.1-3-0.4-4.1 c-0.3-1.1-0.6-1.9-1.1-2.6c-0.5-0.6-1-1.1-1.7-1.4c-0.6-0.3-1.3-0.4-2.1-0.5s-1.5,0.1-2.2,0.3c-0.7,0.2-1.4,0.7-2,1.3 c-0.6,0.6-1,1.4-1.4,2.4c-0.4,1-0.5,2.3-0.5,3.8v12.7h-1.9c-0.6,0-1.2-0.1-1.7-0.2c-0.5-0.1-1-0.3-1.4-0.6 c-0.4-0.3-0.7-0.8-0.9-1.3c-0.2-0.5-0.3-1.2-0.3-2.1v-20.5h1.9c1,0,1.9,0.2,2.6,0.5c0.7,0.3,1.3,0.9,1.5,1.9 c0.1-0.1,0.4-0.4,0.8-0.7c0.4-0.3,0.8-0.6,1.3-0.9c0.5-0.3,1.1-0.5,1.7-0.8C155,528.6,155.7,528.5,156.4,528.4z"/><path class="st1" d="M184.2,549.8c1.4,0,2.7-0.1,3.8-0.3c1.1-0.2,2-0.4,2.8-0.4s1.3,0.2,1.7,0.6c0.4,0.4,0.6,1.3,0.6,2.7 c-0.8,0.3-1.6,0.6-2.6,0.8c-0.8,0.2-1.8,0.4-2.9,0.6c-1.1,0.2-2.3,0.2-3.7,0.2c-1.5,0-2.9-0.2-4.4-0.7c-1.4-0.5-2.7-1.2-3.8-2.2 c-1.1-1-2-2.3-2.7-3.9c-0.7-1.6-1-3.6-1-5.9s0.3-4.3,1-6c0.7-1.6,1.6-3,2.7-4c1.1-1,2.4-1.7,3.8-2.2c1.4-0.5,2.9-0.7,4.4-0.7 c1.3,0,2.6,0.1,3.7,0.3c1.1,0.2,2.1,0.4,2.9,0.6c1,0.2,1.8,0.5,2.6,0.8c0,1.4-0.2,2.3-0.6,2.7c-0.4,0.4-1,0.7-1.7,0.6 s-1.7-0.1-2.8-0.4c-1.1-0.2-2.4-0.3-3.8-0.3c-1.7,0-3.1,0.7-4.1,2c-1.1,1.3-1.6,3.5-1.6,6.5s0.5,5.2,1.6,6.5 C181.1,549.1,182.5,549.8,184.2,549.8z"/><path class="st1" d="M219.2,536.7c0,1.3-0.3,2.5-0.9,3.6c-0.5,1.1-1.5,2-2.7,2.7c-1.3,0.7-3,1.1-5.1,1.2c-2.1,0.1-4.7-0.1-7.9-0.8 c0.3,2.2,0.9,3.8,1.9,4.7c1,1,2.2,1.4,3.7,1.5c1.5,0,2.8-0.1,4-0.2c1.2-0.1,2.2-0.2,3.1-0.1c0.8,0.1,1.5,0.3,1.9,0.7 c0.4,0.4,0.6,1.2,0.6,2.4c-0.7,0.3-1.6,0.6-2.6,0.8c-0.8,0.2-1.9,0.4-3.1,0.6s-2.6,0.2-4.2,0.2c-1.5,0-2.9-0.2-4.4-0.7 c-1.4-0.5-2.7-1.2-3.8-2.2c-1.1-1-2-2.3-2.7-3.9c-0.7-1.6-1-3.6-1-5.9s0.3-4.3,1-5.9c0.7-1.6,1.6-2.9,2.7-3.9 c1.1-1,2.4-1.7,3.8-2.2c1.4-0.5,2.9-0.8,4.4-0.9c1.4-0.1,2.7,0,4.1,0.3c1.4,0.3,2.6,0.8,3.7,1.5c1.1,0.7,1.9,1.6,2.6,2.7 C219,534,219.3,535.3,219.2,536.7z M202.6,539.2c1.4,0.4,2.8,0.6,4,0.8c1.2,0.1,2.3,0.1,3.2-0.1c0.9-0.2,1.7-0.5,2.2-1.1 c0.6-0.5,0.9-1.2,1-2.1c0.1-1.1-0.2-2.1-1-2.9c-0.8-0.8-2.1-1.2-3.9-1.1c-1.5,0.1-2.7,0.6-3.7,1.6 C203.5,535.3,202.9,536.9,202.6,539.2z"/><path class="st1" d="M258.4,541.2c0,2-0.3,3.9-0.9,5.5c-0.6,1.6-1.4,2.9-2.4,4c-1,1.1-2.3,1.9-3.8,2.5c-1.5,0.6-3.1,0.8-4.8,0.8 c-1.7,0-3.3-0.3-4.7-1s-2.7-1.6-3.8-2.8c-1.1-1.2-1.9-2.5-2.5-4.1s-0.9-3.2-0.9-5c0-2.3,0.4-4.3,1.1-6c0.7-1.7,1.7-3,2.8-4.1 s2.4-1.8,3.8-2.2c1.4-0.4,2.8-0.6,4.2-0.5c0.9,0.1,1.7,0.3,2.4,0.6s1.3,0.6,1.8,0.9c0.6,0.4,1.1,0.8,1.5,1.2v-11.6h1.9 c0.6,0,1.2,0.1,1.7,0.2c0.5,0.1,1,0.3,1.4,0.6c0.4,0.3,0.7,0.8,0.9,1.3s0.3,1.2,0.3,2.1L258.4,541.2L258.4,541.2z M245.8,533 c-0.5,0-1,0.2-1.6,0.5s-1.2,0.7-1.7,1.4c-0.5,0.6-0.9,1.5-1.2,2.6c-0.3,1.1-0.4,2.5-0.2,4.2s0.5,3.1,1,4.1c0.5,1,1,1.8,1.6,2.4 c0.6,0.5,1.2,0.9,1.9,1.1c0.7,0.2,1.2,0.2,1.7,0.2c0.5,0,1-0.2,1.6-0.5c0.6-0.3,1.2-0.7,1.7-1.4c0.5-0.7,0.9-1.5,1.2-2.6 c0.3-1.1,0.4-2.5,0.2-4.2c-0.1-1.7-0.5-3.1-1-4.1c-0.5-1-1-1.8-1.6-2.4c-0.6-0.5-1.2-0.9-1.9-1C246.8,533,246.3,533,245.8,533z"/><path class="st1" d="M285.3,536.7c0,1.3-0.3,2.5-0.9,3.6c-0.5,1.1-1.5,2-2.7,2.7c-1.3,0.7-3,1.1-5.1,1.2c-2.1,0.1-4.7-0.1-7.9-0.8 c0.3,2.2,0.9,3.8,1.9,4.7c1,1,2.2,1.4,3.7,1.5c1.5,0,2.8-0.1,4-0.2c1.2-0.1,2.2-0.2,3.1-0.1c0.8,0.1,1.5,0.3,1.9,0.7 c0.4,0.4,0.6,1.2,0.6,2.4c-0.7,0.3-1.6,0.6-2.6,0.8c-0.8,0.2-1.9,0.4-3.1,0.6s-2.6,0.2-4.2,0.2c-1.5,0-2.9-0.2-4.4-0.7 c-1.4-0.5-2.7-1.2-3.8-2.2c-1.1-1-2-2.3-2.7-3.9c-0.7-1.6-1-3.6-1-5.9s0.3-4.3,1-5.9c0.7-1.6,1.6-2.9,2.7-3.9 c1.1-1,2.4-1.7,3.8-2.2c1.4-0.5,2.9-0.8,4.4-0.9c1.4-0.1,2.7,0,4.1,0.3c1.4,0.3,2.6,0.8,3.7,1.5c1.1,0.7,1.9,1.6,2.6,2.7 C285.1,534,285.4,535.3,285.3,536.7z M268.7,539.2c1.4,0.4,2.8,0.6,4,0.8c1.2,0.1,2.3,0.1,3.2-0.1c0.9-0.2,1.7-0.5,2.2-1.1 c0.6-0.5,0.9-1.2,1-2.1c0.1-1.1-0.2-2.1-1-2.9c-0.8-0.8-2.1-1.2-3.9-1.1c-1.5,0.1-2.7,0.6-3.7,1.6 C269.6,535.3,269,536.9,268.7,539.2z"/><path class="st1" d="M316,519.5c2.5,0.1,4.8,0.6,6.8,1.6c2,0.9,3.8,2.2,5.3,3.7c1.5,1.5,2.6,3.3,3.4,5.4c0.8,2.1,1.2,4.3,1.2,6.6 c0,2.3-0.4,4.5-1.2,6.6c-0.8,2-1.9,3.8-3.4,5.4c-1.5,1.5-3.2,2.8-5.3,3.7c-2,0.9-4.3,1.5-6.8,1.6c-2.6,0.1-4.8,0-6.7-0.3 c-1.8-0.3-3.3-0.9-4.4-1.6c-1.1-0.8-1.9-1.7-2.4-2.9s-0.7-2.5-0.7-4.1v-23.9c1.3-0.4,2.6-0.7,4.1-1c1.3-0.2,2.8-0.4,4.5-0.6 C312.1,519.4,314,519.4,316,519.5z M315.7,549.7c1.6-0.1,3-0.5,4.2-1.2c1.2-0.7,2.2-1.6,3-2.8c0.8-1.1,1.4-2.5,1.7-4 s0.6-3.2,0.6-5c0-1.5-0.2-3-0.5-4.4c-0.3-1.5-0.8-2.8-1.5-4c-0.7-1.2-1.7-2.2-2.9-3c-1.2-0.8-2.7-1.3-4.6-1.5 c-1.3-0.1-2.4-0.2-3.3-0.1c-1,0.1-1.7,0.2-2.4,0.4c-0.7,0.2-1.4,0.4-1.9,0.7v20.2c0,0.6,0,1.2,0.1,1.8c0.1,0.6,0.3,1.1,0.8,1.6 c0.5,0.5,1.2,0.8,2.3,1.1C312.2,549.7,313.7,549.8,315.7,549.7z"/><path class="st1" d="M359,536.7c0,1.3-0.3,2.5-0.9,3.6c-0.5,1.1-1.5,2-2.7,2.7c-1.3,0.7-3,1.1-5.1,1.2c-2.1,0.1-4.7-0.1-7.9-0.8 c0.3,2.2,0.9,3.8,1.9,4.7c1,1,2.2,1.4,3.7,1.5c1.5,0,2.8-0.1,4-0.2c1.2-0.1,2.2-0.2,3.1-0.1c0.8,0.1,1.5,0.3,1.9,0.7 c0.4,0.4,0.6,1.2,0.6,2.4c-0.7,0.3-1.6,0.6-2.6,0.8c-0.8,0.2-1.9,0.4-3.1,0.6s-2.6,0.2-4.2,0.2c-1.5,0-2.9-0.2-4.4-0.7 c-1.4-0.5-2.7-1.2-3.8-2.2c-1.1-1-2-2.3-2.7-3.9c-0.7-1.6-1-3.6-1-5.9s0.3-4.3,1-5.9c0.7-1.6,1.6-2.9,2.7-3.9 c1.1-1,2.4-1.7,3.8-2.2c1.4-0.5,2.9-0.8,4.4-0.9c1.4-0.1,2.7,0,4.1,0.3c1.4,0.3,2.6,0.8,3.7,1.5c1.1,0.7,1.9,1.6,2.6,2.7 C358.8,534,359.1,535.3,359,536.7z M353,518.7c0.6,0.6,0.7,1.2,0.5,2c-0.3,0.7-0.9,1.4-1.9,2.1c-1,0.7-2.3,1.2-3.9,1.6 s-3.4,0.6-5.4,0.6c0.7-0.6,1.6-1.3,2.5-2.3c1-1,1.9-1.9,2.9-2.6s1.9-1.4,2.9-1.7C351.6,517.9,352.4,518.1,353,518.7z M342.4,539.2 c1.4,0.4,2.8,0.6,4,0.8c1.2,0.1,2.3,0.1,3.2-0.1c0.9-0.2,1.7-0.5,2.2-1.1c0.6-0.5,0.9-1.2,1-2.1c0.1-1.1-0.2-2.1-1-2.9 c-0.8-0.8-2.1-1.2-3.9-1.1c-1.5,0.1-2.7,0.6-3.7,1.6C343.3,535.3,342.7,536.9,342.4,539.2z"/><path class="st1" d="M379.7,532.4c0.4-1.4,1-2.5,1.8-3c0.8-0.6,1.6-0.9,2.4-1c0.9-0.1,1.9,0,3,0.4c-0.1,0.3-0.2,0.6-0.3,0.9 c-0.1,0.3-0.2,0.6-0.2,0.9c-0.1,0.3-0.2,0.7-0.3,1c-0.4,1.4-0.8,2.9-1.4,4.6c-0.5,1.7-1.1,3.4-1.7,5.2c-0.6,1.7-1.3,3.5-2.1,5.2 c-0.7,1.7-1.5,3.2-2.3,4.6c-0.6,1.1-1.3,1.8-2.2,2.2c-0.9,0.4-1.7,0.5-2.5,0.6c-1,0-1.9-0.1-3-0.4c-1.1-1.2-2-2.7-2.9-4.6 c-0.9-1.8-1.7-3.8-2.5-5.8c-0.8-2-1.5-4.1-2.1-6.1c-0.6-2-1.1-3.8-1.6-5.4c-0.1-0.4-0.2-0.7-0.3-1c-0.1-0.3-0.2-0.6-0.2-0.9 c-0.1-0.3-0.2-0.6-0.2-0.9c1.1-0.4,2.1-0.5,3.1-0.4c0.8,0.1,1.6,0.4,2.4,1c0.8,0.6,1.4,1.6,1.8,3c0.7,2.9,1.4,5.3,2.1,7.3 c0.7,2,1.3,3.6,1.8,4.8c0.6,1.4,1.2,2.6,1.7,3.5c0.5-0.8,1-1.9,1.6-3.3c0.5-1.2,1.1-2.8,1.8-4.8 C378.1,537.9,378.9,535.4,379.7,532.4z"/><path class="st1" d="M412.3,536.7c0,1.3-0.3,2.5-0.9,3.6c-0.5,1.1-1.5,2-2.7,2.7c-1.3,0.7-3,1.1-5.1,1.2c-2.1,0.1-4.7-0.1-7.9-0.8 c0.3,2.2,0.9,3.8,1.9,4.7c1,1,2.2,1.4,3.7,1.5c1.5,0,2.8-0.1,4-0.2c1.2-0.1,2.2-0.2,3.1-0.1c0.8,0.1,1.5,0.3,1.9,0.7 c0.4,0.4,0.6,1.2,0.6,2.4c-0.7,0.3-1.6,0.6-2.6,0.8c-0.8,0.2-1.9,0.4-3.1,0.6s-2.6,0.2-4.2,0.2c-1.5,0-2.9-0.2-4.4-0.7 c-1.4-0.5-2.7-1.2-3.8-2.2c-1.1-1-2-2.3-2.7-3.9c-0.7-1.6-1-3.6-1-5.9s0.3-4.3,1-5.9c0.7-1.6,1.6-2.9,2.7-3.9 c1.1-1,2.4-1.7,3.8-2.2c1.4-0.5,2.9-0.8,4.4-0.9c1.4-0.1,2.7,0,4.1,0.3c1.4,0.3,2.6,0.8,3.7,1.5c1.1,0.7,1.9,1.6,2.6,2.7 C412.1,534,412.4,535.3,412.3,536.7z M395.7,539.2c1.4,0.4,2.8,0.6,4,0.8c1.2,0.1,2.3,0.1,3.2-0.1c0.9-0.2,1.7-0.5,2.2-1.1 c0.6-0.5,0.9-1.2,1-2.1c0.1-1.1-0.2-2.1-1-2.9c-0.8-0.8-2.1-1.2-3.9-1.1c-1.5,0.1-2.7,0.6-3.7,1.6 C396.6,535.3,396,536.9,395.7,539.2z"/><path class="st1" d="M420.2,519.6c0.5,0.1,1,0.3,1.4,0.6s0.7,0.8,0.9,1.3s0.3,1.2,0.3,2.1v29.9H421c-0.6,0-1.2-0.1-1.7-0.2 c-0.5-0.1-1-0.3-1.4-0.6s-0.7-0.8-0.9-1.3c-0.2-0.5-0.3-1.2-0.3-2.1v-29.9h1.9C419.1,519.5,419.6,519.5,420.2,519.6z"/><path class="st1" d="M447.4,532.2c1.1,1.2,2,2.5,2.6,4.1c0.6,1.5,0.9,3.2,0.9,5c0,1.8-0.3,3.4-0.8,5s-1.4,2.9-2.4,4.1 c-1,1.2-2.3,2.1-3.8,2.8c-1.5,0.7-3.1,1-4.9,1c-1.7,0-3.2-0.3-4.6-1c-1.4-0.7-2.7-1.6-3.8-2.8c-1.1-1.2-2-2.5-2.6-4.1 c-0.6-1.5-0.9-3.2-0.9-5c0-1.8,0.3-3.5,0.8-5c0.6-1.5,1.4-2.9,2.4-4.1c1-1.1,2.3-2,3.8-2.7c1.5-0.7,3.1-1,4.9-1 c1.7,0,3.2,0.3,4.7,1C445.1,530.1,446.4,531,447.4,532.2z M438.3,549.4c0.5,0,1,0,1.6-0.2c0.6-0.2,1.3-0.5,1.9-1.1 c0.6-0.5,1.2-1.3,1.6-2.4c0.5-1,0.8-2.4,1-4.1c0.1-1.7,0.1-3.1-0.2-4.2c-0.3-1.1-0.7-2-1.2-2.6c-0.5-0.6-1.1-1.1-1.7-1.4 c-0.6-0.3-1.1-0.4-1.6-0.5c-0.5,0-1,0-1.7,0.2c-0.7,0.2-1.3,0.5-1.9,1c-0.6,0.5-1.1,1.3-1.6,2.4c-0.5,1-0.8,2.4-1,4.1 c-0.2,1.7-0.1,3.1,0.2,4.2c0.3,1.1,0.7,2,1.2,2.6c0.5,0.7,1.1,1.1,1.7,1.4C437.3,549.2,437.8,549.4,438.3,549.4z"/><path class="st1" d="M466.4,528.4c2.2-0.2,4,0.1,5.6,0.8c1.6,0.7,2.8,1.7,3.8,2.9c1,1.2,1.7,2.7,2.1,4.3c0.4,1.6,0.6,3.2,0.6,4.9 c0,1.8-0.3,3.4-0.9,5s-1.4,2.9-2.4,4.1s-2.3,2.1-3.8,2.8c-1.5,0.7-3.2,1-5,1c-0.7,0-1.4-0.1-2-0.2s-1.1-0.3-1.5-0.5 c-0.4-0.2-0.8-0.4-1-0.6c-0.3-0.2-0.5-0.4-0.6-0.5V563h-1.9c-0.6,0-1.2-0.1-1.7-0.2c-0.5-0.1-1-0.3-1.4-0.6 c-0.4-0.3-0.7-0.8-0.9-1.3s-0.3-1.2-0.3-2.1V529h1.9c0.9,0,1.7,0.1,2.4,0.4c0.7,0.2,1.2,0.7,1.6,1.5c0.5-0.4,1.2-0.9,2.1-1.4 S465.1,528.6,466.4,528.4z M460.9,540.7c-0.1,1.7-0.1,3.1,0.3,4.2c0.3,1.1,0.8,2,1.3,2.6c0.5,0.7,1.1,1.1,1.7,1.4 c0.6,0.3,1.2,0.4,1.7,0.5c0.5,0,1.1,0,1.7-0.2c0.7-0.2,1.3-0.5,2-1c0.6-0.5,1.2-1.3,1.7-2.3c0.5-1,0.8-2.4,1-4.1 c0.1-1.7,0.1-3.2-0.2-4.3c-0.3-1.1-0.7-2-1.2-2.6c-0.5-0.6-1.1-1.1-1.7-1.4c-0.6-0.3-1.2-0.4-1.7-0.5c-0.5,0-1.1,0-1.7,0.2 c-0.7,0.1-1.3,0.5-2,1c-0.7,0.5-1.2,1.3-1.7,2.4C461.3,537.6,461,539,460.9,540.7z"/><path class="st1" d="M494.2,528.4c2.2-0.2,4,0.1,5.6,0.8c1.6,0.7,2.8,1.7,3.8,2.9c1,1.2,1.7,2.7,2.1,4.3c0.4,1.6,0.6,3.2,0.6,4.9 c0,1.8-0.3,3.4-0.9,5s-1.4,2.9-2.4,4.1s-2.3,2.1-3.8,2.8c-1.5,0.7-3.2,1-5,1c-0.7,0-1.4-0.1-2-0.2s-1.1-0.3-1.5-0.5 c-0.4-0.2-0.8-0.4-1-0.6c-0.3-0.2-0.5-0.4-0.6-0.5V563h-1.9c-0.6,0-1.2-0.1-1.7-0.2c-0.5-0.1-1-0.3-1.4-0.6 c-0.4-0.3-0.7-0.8-0.9-1.3s-0.3-1.2-0.3-2.1V529h1.9c0.9,0,1.7,0.1,2.4,0.4c0.7,0.2,1.2,0.7,1.6,1.5c0.5-0.4,1.2-0.9,2.1-1.4 S492.9,528.6,494.2,528.4z M488.7,540.7c-0.1,1.7-0.1,3.1,0.3,4.2c0.3,1.1,0.8,2,1.3,2.6c0.5,0.7,1.1,1.1,1.7,1.4 c0.6,0.3,1.2,0.4,1.7,0.5c0.5,0,1.1,0,1.7-0.2c0.7-0.2,1.3-0.5,2-1c0.6-0.5,1.2-1.3,1.7-2.3c0.5-1,0.8-2.4,1-4.1 c0.1-1.7,0.1-3.2-0.2-4.3c-0.3-1.1-0.7-2-1.2-2.6c-0.5-0.6-1.1-1.1-1.7-1.4c-0.6-0.3-1.2-0.4-1.7-0.5c-0.5,0-1.1,0-1.7,0.2 c-0.7,0.1-1.3,0.5-2,1c-0.7,0.5-1.2,1.3-1.7,2.4C489.1,537.6,488.8,539,488.7,540.7z"/><path class="st1" d="M532.8,536.7c0,1.3-0.3,2.5-0.9,3.6c-0.5,1.1-1.5,2-2.7,2.7c-1.3,0.7-3,1.1-5.1,1.2c-2.1,0.1-4.7-0.1-7.9-0.8 c0.3,2.2,0.9,3.8,1.9,4.7c1,1,2.2,1.4,3.7,1.5c1.5,0,2.8-0.1,4-0.2c1.2-0.1,2.2-0.2,3.1-0.1c0.8,0.1,1.5,0.3,1.9,0.7 c0.4,0.4,0.6,1.2,0.6,2.4c-0.7,0.3-1.6,0.6-2.6,0.8c-0.8,0.2-1.9,0.4-3.1,0.6s-2.6,0.2-4.2,0.2c-1.5,0-2.9-0.2-4.4-0.7 c-1.4-0.5-2.7-1.2-3.8-2.2c-1.1-1-2-2.3-2.7-3.9c-0.7-1.6-1-3.6-1-5.9s0.3-4.3,1-5.9c0.7-1.6,1.6-2.9,2.7-3.9 c1.1-1,2.4-1.7,3.8-2.2c1.4-0.5,2.9-0.8,4.4-0.9c1.4-0.1,2.7,0,4.1,0.3c1.4,0.3,2.6,0.8,3.7,1.5c1.1,0.7,1.9,1.6,2.6,2.7 C532.6,534,532.9,535.3,532.8,536.7z M516.2,539.2c1.4,0.4,2.8,0.6,4,0.8c1.2,0.1,2.3,0.1,3.2-0.1c0.9-0.2,1.7-0.5,2.2-1.1 c0.6-0.5,0.9-1.2,1-2.1c0.1-1.1-0.2-2.1-1-2.9c-0.8-0.8-2.1-1.2-3.9-1.1c-1.5,0.1-2.7,0.6-3.7,1.6 C517.1,535.3,516.5,536.9,516.2,539.2z"/><path class="st1" d="M563.4,528.4c1.4-0.1,2.7,0.1,4,0.5c1.3,0.4,2.5,1.2,3.5,2.2s1.8,2.4,2.4,4.1c0.6,1.7,0.9,3.7,0.9,6v12.3 h-1.9c-0.6,0-1.2-0.1-1.7-0.2c-0.5-0.1-1-0.3-1.4-0.6c-0.4-0.3-0.7-0.8-0.9-1.3c-0.2-0.5-0.3-1.2-0.3-2.1v-7.9 c0-1.6-0.1-3-0.2-4.1c-0.2-1.1-0.4-1.9-0.7-2.6s-0.8-1.1-1.3-1.4c-0.5-0.3-1.2-0.4-1.9-0.5c-0.7,0-1.4,0.1-2,0.3 c-0.6,0.2-1.1,0.7-1.6,1.3c-0.4,0.6-0.8,1.4-1,2.4c-0.2,1-0.4,2.3-0.4,3.8v12.7h-1.9c-0.6,0-1.2-0.1-1.7-0.2 c-0.5-0.1-1-0.3-1.4-0.6s-0.7-0.8-0.9-1.3c-0.2-0.5-0.3-1.2-0.3-2.1v-7.9c0-1.6-0.1-3-0.2-4.1c-0.2-1.1-0.4-1.9-0.7-2.6 c-0.3-0.6-0.8-1.1-1.3-1.4c-0.5-0.3-1.1-0.4-1.9-0.5c-0.8,0-1.5,0.1-2.1,0.3c-0.6,0.2-1.1,0.7-1.6,1.3c-0.4,0.6-0.8,1.4-1,2.4 c-0.2,1-0.3,2.3-0.3,3.8v12.7h-1.9c-0.6,0-1.2-0.1-1.7-0.2c-0.5-0.1-1-0.3-1.4-0.6c-0.4-0.3-0.7-0.8-0.9-1.3 c-0.2-0.5-0.3-1.2-0.3-2.1v-20.5h1.9c1,0,1.9,0.2,2.6,0.5s1.3,0.9,1.5,1.9c0.1-0.1,0.3-0.4,0.6-0.7c0.2-0.3,0.6-0.6,0.9-0.9 c0.4-0.3,0.8-0.5,1.4-0.8c0.5-0.2,1.2-0.4,1.9-0.5c1.7-0.1,3.4,0.2,5,0.9c1.6,0.7,2.9,1.9,3.9,3.6c0.2-0.4,0.5-0.8,0.9-1.3 c0.4-0.5,0.8-1,1.4-1.4c0.5-0.4,1.2-0.8,1.9-1.2C561.6,528.7,562.5,528.5,563.4,528.4z"/><path class="st1" d="M601.1,536.7c0,1.3-0.3,2.5-0.9,3.6c-0.5,1.1-1.5,2-2.7,2.7c-1.3,0.7-3,1.1-5.1,1.2c-2.1,0.1-4.7-0.1-7.9-0.8 c0.3,2.2,0.9,3.8,1.9,4.7c1,1,2.2,1.4,3.7,1.5c1.5,0,2.8-0.1,4-0.2c1.2-0.1,2.2-0.2,3.1-0.1c0.8,0.1,1.5,0.3,1.9,0.7 c0.4,0.4,0.6,1.2,0.6,2.4c-0.7,0.3-1.6,0.6-2.6,0.8c-0.8,0.2-1.9,0.4-3.1,0.6s-2.6,0.2-4.2,0.2c-1.5,0-2.9-0.2-4.4-0.7 c-1.4-0.5-2.7-1.2-3.8-2.2c-1.1-1-2-2.3-2.7-3.9c-0.7-1.6-1-3.6-1-5.9s0.3-4.3,1-5.9c0.7-1.6,1.6-2.9,2.7-3.9 c1.1-1,2.4-1.7,3.8-2.2c1.4-0.5,2.9-0.8,4.4-0.9c1.4-0.1,2.7,0,4.1,0.3c1.4,0.3,2.6,0.8,3.7,1.5c1.1,0.7,1.9,1.6,2.6,2.7 C600.9,534,601.2,535.3,601.1,536.7z M584.5,539.2c1.4,0.4,2.8,0.6,4,0.8c1.2,0.1,2.3,0.1,3.2-0.1c0.9-0.2,1.7-0.5,2.2-1.1 c0.6-0.5,0.9-1.2,1-2.1c0.1-1.1-0.2-2.1-1-2.9c-0.8-0.8-2.1-1.2-3.9-1.1c-1.5,0.1-2.7,0.6-3.7,1.6 C585.4,535.3,584.8,536.9,584.5,539.2z"/><path class="st1" d="M617.3,528.4c1.4-0.1,2.8,0.1,4.2,0.5c1.4,0.4,2.7,1.2,3.8,2.2s2.1,2.4,2.8,4.1c0.7,1.7,1.1,3.7,1.1,6v12.3 h-1.9c-0.6,0-1.2-0.1-1.7-0.2c-0.5-0.1-1-0.3-1.4-0.6s-0.7-0.8-0.9-1.3c-0.2-0.5-0.3-1.2-0.3-2.1v-7.9c0-1.6-0.1-3-0.4-4.1 c-0.3-1.1-0.6-1.9-1.1-2.6c-0.5-0.6-1-1.1-1.7-1.4c-0.6-0.3-1.3-0.4-2.1-0.5s-1.5,0.1-2.2,0.3c-0.7,0.2-1.4,0.7-2,1.3 c-0.6,0.6-1,1.4-1.4,2.4c-0.4,1-0.5,2.3-0.5,3.8v12.7h-1.9c-0.6,0-1.2-0.1-1.7-0.2c-0.5-0.1-1-0.3-1.4-0.6s-0.7-0.8-0.9-1.3 c-0.2-0.5-0.3-1.2-0.3-2.1v-20.5h1.9c1,0,1.9,0.2,2.7,0.5s1.3,0.9,1.5,1.9c0.1-0.1,0.4-0.4,0.8-0.7c0.4-0.3,0.8-0.6,1.3-0.9 c0.5-0.3,1.1-0.5,1.7-0.8C615.9,528.6,616.6,528.5,617.3,528.4z"/><path class="st1" d="M647,528.9c0,0.6-0.1,1.2-0.2,1.7c-0.1,0.5-0.3,1-0.6,1.4c-0.3,0.4-0.8,0.7-1.3,0.9s-1.2,0.3-2.1,0.3h-2.5 v20.4h-1.9c-0.6,0-1.2-0.1-1.7-0.2c-0.5-0.1-1-0.3-1.4-0.6s-0.7-0.8-0.9-1.3c-0.2-0.5-0.3-1.2-0.3-2.1v-29.9h1.9 c0.6,0,1.2,0.1,1.7,0.2c0.5,0.1,1,0.3,1.4,0.6s0.7,0.8,0.9,1.3s0.3,1.2,0.3,2.1v5.2H647z"/><path class="st1" d="M688,544.7c-0.2,1.5-0.6,2.8-1.3,3.8c-0.7,1.1-1.5,1.9-2.5,2.6c-1,0.7-2.1,1.3-3.3,1.7 c-1.2,0.4-2.4,0.7-3.5,0.9c-1.2,0.2-2.3,0.3-3.4,0.3c-1.1,0-2,0-2.8-0.1c-1.3-0.1-2.6-0.3-3.8-0.6c-1.2-0.3-2.3-0.5-3.2-0.8 c-1.1-0.3-2.1-0.7-3-1.1c0.1-1.3,0.4-2.2,1-2.6c0.5-0.4,1.2-0.6,2.1-0.5c0.9,0.1,1.9,0.3,3.1,0.6c1.2,0.4,2.5,0.6,4,0.7 c1.2,0.1,2.4,0.1,3.5-0.1c1.1-0.2,2.1-0.5,2.9-0.9c0.8-0.4,1.5-1,2.1-1.7c0.5-0.7,0.9-1.5,1-2.5c0.1-1.4-0.3-2.5-1.3-3.3 c-1-0.8-2.2-1.6-3.7-2.2c-1.5-0.6-3.1-1.2-4.8-1.7s-3.3-1.2-4.7-2s-2.6-1.8-3.4-2.9c-0.8-1.2-1.1-2.7-0.9-4.7 c0.2-1.9,0.9-3.4,2-4.6c1.1-1.1,2.3-2,3.8-2.6c1.4-0.6,2.9-0.9,4.5-1.1c1.5-0.1,2.9-0.2,4.1-0.1c1.3,0.1,2.6,0.3,3.8,0.6 c1.2,0.2,2.3,0.5,3.2,0.8c1.1,0.3,2.1,0.7,3,1.1c-0.1,1.3-0.4,2.2-1,2.6c-0.5,0.4-1.2,0.6-2.1,0.5c-0.9-0.1-1.9-0.3-3.1-0.6 c-1.2-0.3-2.5-0.6-4-0.7c-1.1-0.1-2.1-0.1-3.1,0c-1,0.1-1.9,0.3-2.6,0.6c-0.8,0.3-1.4,0.8-1.8,1.3c-0.4,0.6-0.6,1.3-0.5,2.1 c0.1,1,0.7,1.8,1.8,2.4c1.1,0.6,2.4,1.2,3.9,1.7c1.5,0.5,3.2,1.1,4.9,1.7s3.3,1.3,4.8,2.3s2.6,2.1,3.4,3.5 C687.9,540.7,688.2,542.5,688,544.7z"/><path class="st1" d="M711.6,532.2c1.1,1.2,2,2.5,2.6,4.1c0.6,1.5,0.9,3.2,0.9,5c0,1.8-0.3,3.4-0.8,5s-1.4,2.9-2.4,4.1 s-2.3,2.1-3.8,2.8c-1.5,0.7-3.1,1-4.9,1c-1.7,0-3.2-0.3-4.6-1c-1.4-0.7-2.7-1.6-3.8-2.8c-1.1-1.2-2-2.5-2.6-4.1 c-0.6-1.5-0.9-3.2-0.9-5c0-1.8,0.3-3.5,0.8-5c0.6-1.5,1.4-2.9,2.4-4.1c1-1.1,2.3-2,3.8-2.7c1.5-0.7,3.1-1,4.9-1 c1.7,0,3.2,0.3,4.7,1C709.3,530.1,710.6,531,711.6,532.2z M702.5,549.4c0.5,0,1,0,1.6-0.2c0.6-0.2,1.3-0.5,1.9-1.1 c0.6-0.5,1.2-1.3,1.6-2.4c0.5-1,0.8-2.4,1-4.1c0.1-1.7,0.1-3.1-0.2-4.2c-0.3-1.1-0.7-2-1.2-2.6c-0.5-0.6-1.1-1.1-1.7-1.4 c-0.6-0.3-1.1-0.4-1.6-0.5c-0.5,0-1,0-1.7,0.2c-0.7,0.2-1.3,0.5-1.9,1c-0.6,0.5-1.1,1.3-1.6,2.4c-0.5,1-0.8,2.4-1,4.1 c-0.2,1.7-0.1,3.1,0.2,4.2c0.3,1.1,0.7,2,1.2,2.6c0.5,0.7,1.1,1.1,1.7,1.4C701.5,549.2,702,549.4,702.5,549.4z"/><path class="st1" d="M730.5,549.8c1.4,0,2.7-0.1,3.8-0.3c1.1-0.2,2-0.4,2.8-0.4s1.3,0.2,1.7,0.6c0.4,0.4,0.6,1.3,0.6,2.7 c-0.8,0.3-1.6,0.6-2.6,0.8c-0.8,0.2-1.8,0.4-2.9,0.6c-1.1,0.2-2.3,0.2-3.7,0.2c-1.5,0-2.9-0.2-4.4-0.7c-1.4-0.5-2.7-1.2-3.8-2.2 c-1.1-1-2-2.3-2.7-3.9c-0.7-1.6-1-3.6-1-5.9s0.3-4.3,1-6c0.7-1.6,1.6-3,2.7-4c1.1-1,2.4-1.7,3.8-2.2c1.4-0.5,2.9-0.7,4.4-0.7 c1.3,0,2.6,0.1,3.7,0.3c1.1,0.2,2.1,0.4,2.9,0.6c1,0.2,1.8,0.5,2.6,0.8c0,1.4-0.2,2.3-0.6,2.7c-0.4,0.4-1,0.7-1.7,0.6 s-1.7-0.1-2.8-0.4c-1.1-0.2-2.4-0.3-3.8-0.3c-1.7,0-3.1,0.7-4.1,2c-1.1,1.3-1.6,3.5-1.6,6.5s0.5,5.2,1.6,6.5 C727.4,549.1,728.8,549.8,730.5,549.8z"/><path class="st1" d="M746.4,526.1c-0.8,0-1.6-0.3-2.2-0.9c-0.6-0.6-0.9-1.4-0.9-2.3c0-0.8,0.3-1.6,0.9-2.2s1.3-0.9,2.2-0.9 c0.9,0,1.6,0.3,2.3,0.9c0.6,0.6,0.9,1.3,0.9,2.2c0,0.9-0.3,1.6-0.9,2.3C748.1,525.8,747.3,526.1,746.4,526.1z M745.2,528.9h-1.9 v20.5c0,0.8,0.1,1.5,0.3,2.1c0.2,0.5,0.5,1,0.9,1.3s0.9,0.5,1.4,0.6c0.5,0.1,1.1,0.2,1.7,0.2h1.9V533c0-0.8-0.1-1.5-0.3-2.1 s-0.5-1-0.9-1.3c-0.4-0.3-0.9-0.5-1.4-0.6C746.4,528.9,745.9,528.9,745.2,528.9z"/><path class="st1" d="M765,528.4c0.9,0,2,0,3.2,0.1c1.2,0.1,2.3,0.4,3.4,1.1s2,1.6,2.7,3c0.7,1.4,1.1,3.4,1.1,6v14.9h-1.9 c-1,0-1.8-0.1-2.5-0.4c-0.7-0.3-1.2-0.8-1.5-1.6c-0.4,0.5-1.1,1-2,1.6c-0.9,0.5-2.2,0.9-3.8,0.9c-1.3,0-2.6-0.1-3.8-0.4 c-1.2-0.3-2.3-0.8-3.3-1.5c-1-0.7-1.7-1.6-2.3-2.7c-0.5-1.1-0.8-2.4-0.8-3.8c0.1-3.1,1.5-5.2,4.3-6.3c2.8-1.1,6.7-1.2,11.6-0.5 c0.2-1.1,0.1-2.1-0.1-3c-0.2-0.8-0.7-1.5-1.4-2.1c-0.7-0.6-1.8-1-3.4-1c-1.5,0-2.8,0.1-3.9,0.3s-2,0.4-2.8,0.4 c-0.7,0-1.3-0.2-1.7-0.6c-0.4-0.4-0.6-1.4-0.6-2.7c0.8-0.3,1.6-0.5,2.6-0.8c0.8-0.2,1.8-0.4,2.9-0.6 C762.4,528.5,763.6,528.4,765,528.4z M763.8,549.3c0.7,0,1.5-0.1,2.2-0.3s1.3-0.5,1.9-1c0.5-0.5,1-1.2,1.3-2 c0.3-0.9,0.4-2,0.4-3.3c-0.5-0.1-1-0.3-1.6-0.4c-0.5-0.1-1.1-0.1-1.8-0.2c-0.7-0.1-1.5-0.1-2.3-0.1c-0.5,0-1,0.1-1.5,0.2 c-0.5,0.1-1,0.3-1.4,0.6c-0.4,0.3-0.8,0.7-1.1,1.1c-0.3,0.5-0.4,1-0.4,1.7c0,0.7,0.1,1.3,0.3,1.7c0.2,0.5,0.5,0.8,1,1.1 c0.4,0.3,0.9,0.5,1.4,0.6C762.6,549.3,763.2,549.3,763.8,549.3z"/><path class="st1" d="M783.7,519.6c0.5,0.1,1,0.3,1.4,0.6s0.7,0.8,0.9,1.3s0.3,1.2,0.3,2.1v29.9h-1.9c-0.6,0-1.2-0.1-1.7-0.2 c-0.5-0.1-1-0.3-1.4-0.6s-0.7-0.8-0.9-1.3c-0.2-0.5-0.3-1.2-0.3-2.1v-29.9h1.9C782.6,519.5,783.2,519.5,783.7,519.6z"/></g></svg>