<svg version="1.1" id="Calque_1" xmlns="http://www.w3.org/2000/svg" x="0px" y="0px" viewBox="0 0 628.02 571.76" style="enable-background:new 0 0 628.02 571.76" xml:space="preserve"><style>.st0{fill:#020203}.st2{fill:#DC2828}</style><switch><g><path class="st0" d="M47.66,185.36H36.84v21.51H31v-21.51H20.18v-5.18H31v-20.13h5.84v20.13h10.82V185.36z"/><path class="st0" d="M56.05,199.2c0-1.62,0.37-3.05,1.11-4.29c0.74-1.25,1.75-2.24,3.01-2.98c1.27-0.74,2.69-1.11,4.26-1.11 c1.57,0,2.99,0.37,4.26,1.11c1.27,0.74,2.27,1.75,3.01,3.01c0.74,1.27,1.11,2.69,1.11,4.26c0,1.57-0.37,2.99-1.11,4.26 c-0.74,1.27-1.75,2.26-3.01,2.98c-1.27,0.72-2.69,1.08-4.26,1.08c-2.36,0-4.35-0.79-5.97-2.36 C56.86,203.59,56.05,201.6,56.05,199.2z M60.64,199.2c0,1.05,0.39,1.94,1.18,2.69c0.79,0.74,1.68,1.11,2.69,1.11 s1.88-0.37,2.62-1.11c0.74-0.74,1.11-1.64,1.11-2.69c0-1.05-0.37-1.94-1.11-2.69c-0.74-0.74-1.62-1.11-2.62-1.11 c-1.05,0-1.96,0.37-2.72,1.11C61.02,197.26,60.64,198.15,60.64,199.2z"/><path class="st0" d="M81.49,160.05h37.44v2.89l-15.6,21.11l16.92,22.82h-6.23l-13.83-18.62l-13.77,18.62h-6.23l16.92-22.82 L81.49,163V160.05z M100.18,179.86L111,165.23H89.36L100.18,179.86z"/><path class="st0" d="M145.36,181.37c0-2.45,0.06-4.48,0.2-6.1h-0.2c-0.35,1.09-0.72,2.17-1.11,3.24 c-0.39,1.07-0.83,2.15-1.31,3.24l-8.26,18.23v6.89h-5.9v-46.82h5.9v22.1c0,2.01-0.06,5.03-0.2,9.05h0.2 c0.39-1.13,0.83-2.35,1.31-3.64c0.48-1.29,0.94-2.44,1.38-3.44l8-17.71v-6.36h5.84v46.82h-5.84L145.36,181.37L145.36,181.37z"/><path class="st0" d="M164.96,206.87h-5.51l16.13-46.82h5.18l16.13,46.82h-5.51l-10.16-29.57c-0.7-2.05-1.3-3.88-1.8-5.47 s-0.91-2.96-1.21-4.1c-0.09,0.44-0.21,0.87-0.36,1.31c-0.15,0.44-0.29,0.9-0.43,1.38c-0.13,0.44-1.24,3.69-3.31,9.77 C172.03,186.26,168.98,195.15,164.96,206.87z"/><path class="st0" d="M202.73,195.33v-3.74c2.14-1.13,3.9-2.05,5.28-2.75c1.38-0.7,2.59-1.32,3.64-1.87 c1.05-0.55,2.14-1.1,3.28-1.67c1.13-0.57,2.54-1.24,4.2-2.03c-2.01-0.92-3.84-1.79-5.47-2.62c-1.64-0.83-3.31-1.71-5.01-2.62 c-1.71-0.92-3.67-1.94-5.9-3.08v-3.74l23.41-11.87v5.51c-4.29,2.27-7.78,4.11-10.49,5.51c-2.71,1.4-4.61,2.34-5.7,2.82 c1.4,0.61,2.78,1.26,4.13,1.94c1.36,0.68,2.98,1.51,4.89,2.49c1.9,0.98,4.29,2.24,7.18,3.77v3.8c-4.2,2.14-7.7,3.9-10.52,5.28 s-4.95,2.39-6.39,3.05c0.74,0.35,2.52,1.24,5.34,2.66s6.68,3.38,11.57,5.87v5.51L202.73,195.33z"/><path class="st0" d="M260.76,185.36h-10.82v21.51h-5.84v-21.51h-10.82v-5.18h10.82v-20.13h5.84v20.13h10.82V185.36z"/><path class="st0" d="M293.15,160.05v46.82h-5.84v-46.82H293.15z"/><path class="st0" d="M339.37,181.37c0-2.45,0.06-4.48,0.2-6.1h-0.2c-0.35,1.09-0.72,2.17-1.11,3.24 c-0.39,1.07-0.83,2.15-1.31,3.24l-8.26,18.23v6.89h-5.9v-46.82h5.9v22.1c0,2.01-0.06,5.03-0.2,9.05h0.2 c0.39-1.13,0.83-2.35,1.31-3.64c0.48-1.29,0.94-2.44,1.38-3.44l8-17.71v-6.36h5.84v46.82h-5.84L339.37,181.37L339.37,181.37z"/><path class="st0" d="M357.86,160.05h32.13v5.18H363.7v36.46h26.29v5.18h-32.13L357.86,160.05L357.86,160.05z"/><path class="st0" d="M399.04,199.2c0-1.62,0.37-3.05,1.11-4.29c0.74-1.25,1.75-2.24,3.01-2.98c1.27-0.74,2.69-1.11,4.26-1.11 c1.57,0,2.99,0.37,4.26,1.11c1.27,0.74,2.27,1.75,3.01,3.01c0.74,1.27,1.11,2.69,1.11,4.26c0,1.57-0.37,2.99-1.11,4.26 c-0.74,1.27-1.75,2.26-3.01,2.98c-1.27,0.72-2.69,1.08-4.26,1.08c-2.36,0-4.35-0.79-5.97-2.36 C399.85,203.59,399.04,201.6,399.04,199.2z M403.63,199.2c0,1.05,0.39,1.94,1.18,2.69c0.79,0.74,1.68,1.11,2.69,1.11 s1.88-0.37,2.62-1.11c0.74-0.74,1.11-1.64,1.11-2.69c0-1.05-0.37-1.94-1.11-2.69c-0.74-0.74-1.62-1.11-2.62-1.11 c-1.05,0-1.96,0.37-2.72,1.11C404.02,197.26,403.63,198.15,403.63,199.2z"/><path class="st0" d="M462.12,160.05v27.28h-14.49v19.54h-5.84v-19.54h-14.49v-27.28h5.84v22.1h23.15v-22.1H462.12z"/><path class="st0" d="M472.41,183.4c0-3.41,0.63-6.57,1.9-9.47c1.27-2.91,3.01-5.45,5.24-7.64c2.23-2.19,4.8-3.89,7.7-5.12 c2.91-1.22,5.98-1.84,9.21-1.84c3.41,0,6.58,0.64,9.51,1.94c2.93,1.29,5.49,3.05,7.67,5.28c2.19,2.23,3.89,4.8,5.12,7.7 c1.22,2.91,1.84,5.98,1.84,9.21c0,3.28-0.64,6.37-1.9,9.28c-1.27,2.91-3.01,5.47-5.21,7.7c-2.21,2.23-4.78,3.97-7.7,5.21 c-2.93,1.24-6.03,1.87-9.31,1.87c-3.41,0-6.58-0.64-9.51-1.9c-2.93-1.27-5.47-3.01-7.64-5.24c-2.17-2.23-3.86-4.8-5.08-7.7 C473.03,189.77,472.41,186.67,472.41,183.4z M478.18,183.53c0,2.49,0.46,4.87,1.38,7.15s2.21,4.29,3.87,6.07 c1.66,1.77,3.61,3.16,5.84,4.16c2.23,1.01,4.63,1.51,7.21,1.51c2.58,0,4.97-0.52,7.18-1.54c2.21-1.03,4.14-2.43,5.8-4.2 c1.66-1.77,2.96-3.79,3.9-6.07c0.94-2.27,1.41-4.66,1.41-7.15c0-2.54-0.46-4.95-1.38-7.24s-2.21-4.33-3.87-6.1 c-1.66-1.77-3.61-3.16-5.84-4.17c-2.23-1.01-4.63-1.51-7.21-1.51c-2.62,0-5.04,0.5-7.24,1.51c-2.21,1.01-4.14,2.39-5.8,4.17 c-1.66,1.77-2.95,3.8-3.87,6.1C478.64,178.51,478.18,180.95,478.18,183.53z"/><path class="st0" d="M528.47,195.33v-3.74c2.14-1.13,3.9-2.05,5.28-2.75c1.38-0.7,2.59-1.32,3.64-1.87 c1.05-0.55,2.14-1.1,3.28-1.67c1.13-0.57,2.54-1.24,4.2-2.03c-2.01-0.92-3.84-1.79-5.47-2.62c-1.64-0.83-3.31-1.71-5.01-2.62 c-1.71-0.92-3.67-1.94-5.9-3.08v-3.74l23.41-11.87v5.51c-4.29,2.27-7.78,4.11-10.49,5.51c-2.71,1.4-4.61,2.34-5.7,2.82 c1.4,0.61,2.78,1.26,4.13,1.94c1.36,0.68,2.98,1.51,4.89,2.49c1.9,0.98,4.29,2.24,7.18,3.77v3.8c-4.2,2.14-7.7,3.9-10.52,5.28 c-2.82,1.38-4.95,2.39-6.39,3.05c0.74,0.35,2.52,1.24,5.34,2.66c2.82,1.42,6.68,3.38,11.57,5.87v5.51L528.47,195.33z"/><path class="st0" d="M559.75,183.46c0-3.32,0.61-6.44,1.84-9.34c1.22-2.91,2.94-5.47,5.15-7.67c2.21-2.21,4.77-3.94,7.67-5.21 c2.91-1.27,6.02-1.9,9.34-1.9c3.28,0,6.38,0.62,9.31,1.87c2.93,1.24,5.5,2.98,7.7,5.21c2.21,2.23,3.94,4.8,5.21,7.7 c1.27,2.91,1.9,6.02,1.9,9.34c0,3.19-0.6,6.23-1.8,9.12c-1.2,2.89-2.9,5.45-5.08,7.7c-2.19,2.25-4.75,4.02-7.67,5.31 c-2.93,1.29-6.12,1.94-9.58,1.94c-3.41,0-6.57-0.64-9.47-1.9c-2.91-1.27-5.44-3.01-7.61-5.21c-2.17-2.21-3.86-4.77-5.08-7.67 C560.36,189.83,559.75,186.74,559.75,183.46z M583.82,202.41c3.24,0,6.13-0.74,8.69-2.23c2.56-1.49,4.66-3.47,6.33-5.93 s2.71-5.21,3.15-8.23h-36.26c0.44,3.01,1.48,5.76,3.12,8.23c1.64,2.47,3.75,4.45,6.33,5.93 C577.74,201.67,580.62,202.41,583.82,202.41z M583.82,164.45c-3.06,0-5.9,0.73-8.52,2.2s-4.78,3.43-6.46,5.9 c-1.68,2.47-2.7,5.24-3.05,8.3h36.19c-0.44-3.01-1.5-5.76-3.18-8.23c-1.68-2.47-3.82-4.45-6.39-5.93 C589.82,165.19,586.96,164.45,583.82,164.45z"/><g><path d="M289.82,352.67c0.95-2.67,1.97-5.31,3.59-7.82c2.51-3.9,5.61-7.53,11.23-10.02 c0.51-0.22,0.75-0.42,0.19-0.77c-6.88-4.16-9.46-9.61-10.88-15.31c-1.77-7.08-1.15-14.1,2.39-20.95 c1.46-2.82,3.46-5.47,6.57-7.72c2.87-2.07,6.24-3.5,10.87-3.26c3.19,0.17,5.68,1.19,7.86,2.57c3.4,2.15,5.56,4.79,7.15,7.63 c3.15,5.63,4.18,11.44,3.57,17.39c-0.42,4.1-1.53,8.1-3.85,11.95c-1.82,3.03-4.26,5.81-8.22,7.95 c-0.52,0.28-0.81,0.46-0.08,0.83c7.48,3.79,10.71,9.12,13.06,14.74c2.21,5.27,2.82,10.66,2.51,16.1 c-0.08,1.43-0.07,1.43,2.23,1.43c1.28,0,2.56-0.03,3.82,0.01c1.02,0.04,1.41-0.18,1.48-0.86c0.32-2.86,0.84-5.71,1.97-8.51 c1.11-2.76,2.59-5.42,4.87-7.88c1.66-1.8,3.64-3.41,6.36-4.63c0.44-0.19,1.16-0.34,0.41-0.8c-6.26-3.88-8.33-8.9-9.27-14.18 c-1.01-5.67-0.34-11.25,2.9-16.64c1.34-2.22,3.11-4.28,5.84-5.95c4.46-2.72,9.74-2.77,14.21-0.06c3.95,2.4,6.02,5.48,7.34,8.76 c3.08,7.63,2.75,15.16-1.88,22.53c-1.37,2.18-3.29,4.14-6.16,5.67c-0.49,0.26-0.88,0.46-0.14,0.83 c6.62,3.39,9.22,8.16,11.18,13.15c0.97,2.47,1.38,5,1.64,7.54c0.08,0.83,0.51,1.03,1.76,1.03c6.96-0.04,13.91,0.02,20.87-0.04 c1.64-0.01,2.09,0.32,2.04,1.31c-0.1,1.92-0.02,3.83-0.03,5.75c0,1.46-0.01,1.46-2.25,1.46c-47.71,0-95.41,0-143.12,0 c-20.35,0-40.69-0.01-61.04,0.02c-1.63,0-2.05-0.3-2-1.29c0.11-2.06,0.09-4.13,0-6.19c-0.03-0.83,0.35-1.06,1.66-1.06 c10.09,0.03,20.17,0,30.26,0.03c1.43,0,1.81-0.16,1.63-1.17c-1.79-10.37-0.73-20.58,4.76-30.5c1.17-2.12,2.62-4.17,4.38-6.12 c2.59-2.88,5.69-5.47,10.09-7.34c0.65-0.28,0.94-0.47,0.21-0.89c-6.76-3.97-10.01-9.15-12.01-14.66 c-3.76-10.34-3.31-20.6,2.23-30.68c1.79-3.26,4.28-6.29,8.04-8.83c3.29-2.22,7.11-3.77,12.17-3.6c3.6,0.11,6.55,1.14,9.15,2.62 c4.29,2.44,6.99,5.56,9.08,8.92c2.99,4.8,4.42,9.8,4.94,14.94c0.72,7.03-0.4,13.9-3.95,20.58c-2.25,4.23-5.37,8.16-10.93,11.09 c-0.52,0.27-0.82,0.5-0.11,0.85c9.08,4.52,12.96,10.95,15.93,17.69c1.69,3.84,2.47,7.78,3.1,11.74 C289.46,352.24,289.36,352.48,289.82,352.67z" style="fill:#39A433"/><path class="st2" d="M226.3,243.98c0,4.41-0.03,8.81,0.03,13.22c0.01,0.94-0.32,1.23-1.45,1.3 c-16.26,0.86-32.41,2.52-48.34,5.43c-47.51,6.88-124.07,39.32-87.11,87.55c30.76,37.61,89.11,48.95,136.91,60.71 c-0.01,2.9,0.03,2.93-3.28,2.42c-60.58-11-132.37-24.32-168.94-70.14C10.84,275,164.15,238.52,224.27,229.71 c2.03-0.32,2.03-0.33,2.03,1.47C226.3,235.44,226.3,239.71,226.3,243.98z"/><path class="st2" d="M402.29,402.09c0-4.41,0.03-8.81-0.02-13.22c-0.01-0.93,0.28-1.25,1.44-1.31 c14.62-0.78,29.14-2.18,43.52-4.59c48.58-6.37,129.88-38.47,91.88-88.49c-30.96-35.9-85.74-50.3-135.36-59.19 c-1.17-0.19-1.49-0.58-1.47-1.54c0.04-2.77,0-2.8,3.26-2.29c58.21,9.83,175.84,33.87,176.01,95.75 c-1.79,50.81-109.72,76.69-166.05,87.37C396.94,417.35,403.43,419.36,402.29,402.09z"/></g><g><path d="M35.47,460.65H20.15v9.89h17.11v7.72H10.7v-41.64h25.7v7.72H20.15v8.65h15.32V460.65z"/><path d="M43.69,478.26v-41.64h11l8.65,15.26c2.47,4.39,4.94,9.58,6.8,14.27h0.19c-0.62-5.5-0.8-11.12-0.8-17.36v-12.17h8.65 v41.64h-9.89l-8.9-16.06c-2.47-4.45-5.19-9.82-7.23-14.7l-0.19,0.06c0.25,5.5,0.37,11.37,0.37,18.17v12.54H43.69z"/><path d="M94.35,444.53H83.17v-7.91h32.01v7.91h-11.37v33.74h-9.45V444.53z"/><path d="M120.18,437.18c3.03-0.49,7.54-0.87,12.54-0.87c6.18,0,10.5,0.93,13.47,3.27c2.47,1.98,3.83,4.88,3.83,8.71 c0,5.31-3.77,8.96-7.35,10.26v0.18c2.9,1.17,4.51,3.95,5.56,7.79c1.3,4.7,2.6,10.13,3.4,11.74h-9.64 c-0.68-1.17-1.67-4.57-2.9-9.7c-1.11-5.19-2.9-6.61-6.73-6.67h-2.84v16.37h-9.33V437.18z M129.51,455.09h3.71 c4.7,0,7.48-2.35,7.48-5.99c0-3.83-2.6-5.75-6.92-5.81c-2.29,0-3.58,0.18-4.26,0.31V455.09z"/><path d="M167.07,467.57l-2.97,10.69h-9.76l12.73-41.64h12.36l12.91,41.64h-10.13L179,467.57H167.07z M177.64,460.53l-2.6-8.84 c-0.74-2.47-1.48-5.56-2.1-8.03h-0.12c-0.62,2.47-1.24,5.62-1.91,8.03l-2.47,8.84H177.64z"/><path d="M207.36,436.62v41.64h-9.45v-41.64H207.36z"/><path d="M215.51,437.18c3.46-0.56,7.97-0.87,12.73-0.87c7.91,0,13.04,1.42,17.05,4.45c4.33,3.21,7.04,8.34,7.04,15.69 c0,7.97-2.9,13.47-6.92,16.87c-4.39,3.64-11.06,5.38-19.22,5.38c-4.88,0-8.34-0.31-10.69-0.62V437.18z M224.96,471.16 c0.8,0.19,2.1,0.19,3.27,0.19c8.53,0.06,14.09-4.63,14.09-14.58c0.06-8.65-5-13.22-13.1-13.22c-2.1,0-3.46,0.18-4.26,0.37 V471.16z"/><path d="M283.29,460.65h-15.32v9.89h17.12v7.72h-26.57v-41.64h25.7v7.72h-16.25v8.65h15.32V460.65z"/><path d="M303.99,478.26v-41.64h11l8.65,15.26c2.47,4.39,4.94,9.58,6.8,14.27h0.19c-0.62-5.5-0.8-11.12-0.8-17.36v-12.17h8.65 v41.64h-9.89l-8.9-16.06c-2.47-4.45-5.19-9.82-7.23-14.7l-0.19,0.06c0.25,5.5,0.37,11.37,0.37,18.17v12.54H303.99z"/><path d="M356.32,467.57l-2.97,10.69h-9.76l12.73-41.64h12.36l12.91,41.64h-10.13l-3.21-10.69H356.32z M366.88,460.53l-2.59-8.84 c-0.74-2.47-1.48-5.56-2.1-8.03h-0.12c-0.62,2.47-1.24,5.62-1.92,8.03l-2.47,8.84H366.88z"/><path d="M390.05,444.53h-11.18v-7.91h32.01v7.91h-11.37v33.74h-9.45V444.53z"/><path d="M425.33,436.62v41.64h-9.45v-41.64H425.33z"/><path d="M471.61,457.01c0,13.66-8.28,21.93-20.45,21.93c-12.36,0-19.59-9.33-19.59-21.19c0-12.48,7.97-21.81,20.27-21.81 C464.63,435.94,471.61,445.52,471.61,457.01z M441.52,457.56c0,8.16,3.83,13.9,10.13,13.9c6.36,0,10.01-6.06,10.01-14.15 c0-7.48-3.58-13.9-10.07-13.9C445.23,443.42,441.52,449.47,441.52,457.56z"/><path d="M477.79,478.26v-41.64h11l8.65,15.26c2.47,4.39,4.94,9.58,6.8,14.27h0.19c-0.62-5.5-0.8-11.12-0.8-17.36v-12.17h8.65 v41.64h-9.89l-8.9-16.06c-2.47-4.45-5.19-9.82-7.23-14.7l-0.19,0.06c0.25,5.5,0.37,11.37,0.37,18.17v12.54H477.79z"/><path d="M530.12,467.57l-2.97,10.69h-9.76l12.73-41.64h12.36l12.91,41.64h-10.13l-3.21-10.69H530.12z M540.68,460.53l-2.59-8.84 c-0.74-2.47-1.48-5.56-2.1-8.03h-0.12c-0.62,2.47-1.24,5.62-1.92,8.03l-2.47,8.84H540.68z"/><path d="M560.95,436.62h9.45v33.74h16.56v7.91h-26.01V436.62z"/><path d="M617.3,460.65h-15.32v9.89h17.11v7.72h-26.57v-41.64h25.7v7.72h-16.25v8.65h15.32V460.65z"/></g><g><path d="M9.7,551.95v-39.17h10.34l8.14,14.36c2.33,4.13,4.65,9.01,6.39,13.43h0.17c-0.58-5.17-0.76-10.46-0.76-16.33v-11.45 h8.14v39.17h-9.3l-8.37-15.11c-2.32-4.18-4.88-9.24-6.8-13.83l-0.17,0.06c0.23,5.17,0.35,10.69,0.35,17.09v11.8H9.7z"/><path d="M58.92,541.89l-2.79,10.05h-9.18l11.97-39.17h11.62l12.15,39.17h-9.53l-3.02-10.05H58.92z M68.86,535.27l-2.44-8.31 c-0.7-2.33-1.4-5.23-1.98-7.56h-0.12c-0.58,2.33-1.16,5.29-1.8,7.56l-2.33,8.31H68.86z"/><path d="M90.65,520.21H80.13v-7.44h30.11v7.44H99.54v31.73h-8.89V520.21z"/><path d="M123.83,512.77v39.17h-8.89v-39.17H123.83z"/><path d="M167.36,531.95c0,12.84-7.79,20.63-19.24,20.63c-11.62,0-18.42-8.78-18.42-19.93c0-11.74,7.5-20.52,19.06-20.52 C160.79,512.13,167.36,521.14,167.36,531.95z M139.05,532.48c0,7.67,3.6,13.08,9.53,13.08c5.99,0,9.42-5.7,9.42-13.31 c0-7.03-3.37-13.08-9.47-13.08C142.54,519.17,139.05,524.86,139.05,532.48z"/><path d="M173.17,551.95v-39.17h10.34l8.14,14.36c2.33,4.13,4.65,9.01,6.39,13.43h0.17c-0.58-5.17-0.76-10.46-0.76-16.33v-11.45 h8.14v39.17h-9.3l-8.37-15.11c-2.32-4.18-4.88-9.24-6.8-13.83l-0.17,0.06c0.23,5.17,0.35,10.69,0.35,17.09v11.8H173.17z"/><path d="M222.39,541.89l-2.79,10.05h-9.18l11.97-39.17h11.62l12.15,39.17h-9.53l-3.02-10.05H222.39z M232.32,535.27l-2.44-8.31 c-0.7-2.33-1.39-5.23-1.98-7.56h-0.12c-0.58,2.33-1.16,5.29-1.8,7.56l-2.32,8.31H232.32z"/><path d="M251.38,512.77h8.89v31.73h15.57v7.44h-24.47V512.77z"/><path d="M325.94,536.95c-0.17-4.71-0.35-10.4-0.35-16.1h-0.17c-1.22,5-2.85,10.58-4.36,15.17l-4.77,15.28h-6.92l-4.19-15.17 c-1.28-4.59-2.61-10.17-3.55-15.28h-0.12c-0.23,5.29-0.41,11.33-0.7,16.21l-0.7,14.88h-8.2l2.5-39.17h11.8l3.84,13.08 c1.22,4.53,2.44,9.41,3.31,14.01h0.17c1.1-4.53,2.44-9.71,3.72-14.06l4.18-13.02h11.56l2.15,39.17h-8.66L325.94,536.95z"/><path d="M350.81,512.77v22.55c0,6.74,2.56,10.17,7.09,10.17c4.65,0,7.21-3.25,7.21-10.17v-22.55h8.83v21.97 c0,12.09-6.1,17.84-16.33,17.84c-9.88,0-15.69-5.46-15.69-17.96v-21.85H350.81z"/><path d="M389.17,520.21h-10.52v-7.44h30.11v7.44h-10.69v31.73h-8.89V520.21z"/><path d="M422.29,512.77v22.55c0,6.74,2.56,10.17,7.09,10.17c4.65,0,7.21-3.25,7.21-10.17v-22.55h8.83v21.97 c0,12.09-6.1,17.84-16.33,17.84c-9.88,0-15.69-5.46-15.69-17.96v-21.85H422.29z"/><path d="M460.47,541.89l-2.79,10.05h-9.18l11.97-39.17h11.62l12.15,39.17h-9.53l-3.02-10.05H460.47z M470.41,535.27l-2.44-8.31 c-0.7-2.33-1.4-5.23-1.98-7.56h-0.12c-0.58,2.33-1.16,5.29-1.8,7.56l-2.33,8.31H470.41z"/><path d="M489.47,512.77h8.89v31.73h15.57v7.44h-24.47V512.77z"/><path d="M540.03,541.89l-2.79,10.05h-9.18l11.97-39.17h11.62l12.15,39.17h-9.53l-3.02-10.05H540.03z M549.96,535.27l-2.44-8.31 c-0.7-2.33-1.39-5.23-1.98-7.56h-0.12c-0.58,2.33-1.16,5.29-1.8,7.56l-2.32,8.31H549.96z"/><path d="M577.92,512.77v39.17h-8.89v-39.17H577.92z"/><path d="M585.59,513.3c3.25-0.52,7.5-0.81,11.97-0.81c7.44,0,12.26,1.34,16.04,4.18c4.07,3.02,6.63,7.85,6.63,14.76 c0,7.5-2.73,12.67-6.51,15.87c-4.13,3.43-10.4,5.06-18.07,5.06c-4.59,0-7.85-0.29-10.05-0.58V513.3z M594.48,545.26 c0.76,0.17,1.98,0.17,3.08,0.17c8.02,0.06,13.25-4.36,13.25-13.72c0.06-8.14-4.71-12.44-12.32-12.44 c-1.98,0-3.25,0.17-4.01,0.35V545.26z"/></g><g><path class="st0" d="M36.97,104.99c6.62,5.23,12.49,8.66,17.63,10.29c5.14,1.63,9.97,2.77,14.49,3.44c4.52,0.67,9.22,1,14.1,1 c14.08,0,26.53-2.62,37.36-7.85c10.83-5.24,16.67-10.61,17.53-16.12c0.86-5.51,1.29-8.46,1.29-8.85c0-1.59-1.19-3.94-3.58-7.05 c-2.39-3.1-3.42-5.23-3.1-6.36c0.2-0.98,2.76-2.71,7.68-5.22c4.93-2.5,8.72-3.76,11.39-3.76c0.59,0,1.45,0.15,2.58,0.44 c1.14,0.29,2.54,2.31,4.22,6.05c1.67,3.74,3.04,6.06,4.1,6.95c1.06,0.89,2.3,1.53,3.73,1.9c1.43,0.37,3.71,0.56,6.83,0.56 c0.62,0,1.49-0.04,2.61-0.12c1.12-0.08,1.96-0.15,2.51-0.22l-0.19,9.61c-2.08-0.06-4.27-0.13-6.56-0.2 c-2.29-0.06-4.01-0.2-5.15-0.39c-1.72-0.49-3.6-1.21-5.63-2.17c-2.03-0.96-3.63-2.02-4.8-3.19c-1.17-1.17-2.12-2.49-2.85-3.95 c-0.73-1.46-1.42-3.09-2.07-4.88c-1.07,0-2.53,0.18-4.37,0.54c-1.84,0.36-2.76,0.85-2.76,1.46c0,0.26,0.24,0.59,0.73,0.98 c0.98,1.53,1.73,3.05,2.27,4.56c0.54,1.51,0.8,2.9,0.8,4.17c0,0.33-0.76,4.18-2.29,11.56c-1.53,7.38-7.93,14.05-19.22,20.02 c-11.28,5.97-24.52,8.95-39.7,8.95c-4.58,0-9.26-0.29-14.02-0.85c-4.76-0.57-10.37-1.6-16.83-3.1 c-6.45-1.5-12.79-5.36-19.02-11.58c-6.23-6.23-10.64-13.7-13.24-22.41C25.85,94.49,30.36,99.76,36.97,104.99z M103.82,137.82 c1.14,1.2,2.18,1.8,3.12,1.8c1.79,0,3.16-0.59,4.12-1.76c0.96-1.17,1.44-2.46,1.44-3.85c0-1.59-0.37-2.79-1.1-3.58 c-0.73-0.8-1.96-1.2-3.68-1.2c-1.66,0-3.01,0.51-4.05,1.54c-1.04,1.02-1.56,2.1-1.56,3.24 C102.11,135.35,102.68,136.62,103.82,137.82z M118.4,136.43c0.88,0.7,1.77,1.23,2.68,1.59c1.59,0,3.06-0.46,4.39-1.37 c1.33-0.91,2-2.33,2-4.24c0-1.4-0.33-2.54-1-3.44c-0.67-0.89-1.93-1.34-3.78-1.34c-1.66,0-3.01,0.51-4.05,1.54 c-1.04,1.02-1.56,2.11-1.56,3.24C117.08,134.39,117.52,135.73,118.4,136.43z"/><path class="st0" d="M204.19,89.68h-9.9c-0.59,0.2-1.07,0.29-1.46,0.29c-0.75,0-1.63-0.75-2.66-2.24 c-1.02-1.5-1.94-2.62-2.76-3.37c-0.94,1.76-1.69,3.08-2.24,3.97c-0.55,0.89-1.4,1.34-2.54,1.34h-9.17v-9.61h4.78 c5.17,0,8.12-1.45,8.85-4.34c0.73-2.89,2.04-4.34,3.93-4.34c0.26,0,1.31,1.45,3.15,4.34c1.84,2.89,4.12,4.34,6.85,4.34h3.17 V89.68z M178.34,53.64c0-1.14,0.51-2.23,1.54-3.27c1.02-1.04,2.37-1.56,4.02-1.56c3.22,0,4.83,1.61,4.83,4.83 c0,1.33-0.51,2.59-1.51,3.78c-1.01,1.19-2.37,1.78-4.1,1.78c-0.94,0-1.98-0.59-3.1-1.78C178.9,56.23,178.34,54.97,178.34,53.64z"/><path class="st0" d="M267.11,89.68c-0.52,0-1.41-0.3-2.68-0.9c-1.27-0.6-2.6-0.9-4-0.9c-1.4,0-2.72,0.3-3.95,0.9 c-1.24,0.6-5.48,0.9-12.73,0.9c-6.6,0-12.38-0.25-17.34-0.76c-4.96-0.5-8.17-0.76-9.63-0.76c-0.55,0-0.97,0.15-1.27,0.46 c-0.29,0.31-0.58,0.99-0.88,2.05c-0.29,1.06-0.86,1.85-1.71,2.39c-0.85,0.54-1.76,0.87-2.73,1c-2.02,0.26-3.02-0.47-3.02-2.19 c0-0.88,0.2-1.88,0.61-3c0.41-1.12,0.81-2.15,1.2-3.1c0.07-0.32-0.41-0.66-1.44-1c-1.02-0.34-1.77-0.66-2.24-0.95 c-0.47-0.29-0.91-0.93-1.32-1.93c-0.41-0.99-0.61-2.02-0.61-3.1c0-1.27,0.25-2.39,0.76-3.37c0.5-0.98,1.23-1.56,2.17-1.76 c0.78-0.13,1.67,0.46,2.68,1.76c1.01,1.3,2.34,1.95,4,1.95c3.45-6.47,7.71-11.3,12.78-14.49c5.07-3.19,11.27-4.78,18.58-4.78 c1.33-4,2.27-7.08,2.8-9.24c0.54-2.16,0.97-4.51,1.29-7.05c0.32-2.54,0.49-4.16,0.49-4.88c0-1.27-0.29-2.49-0.85-3.66 c-0.57-1.17-0.82-1.98-0.76-2.44c0.62-2.34,2.02-4.26,4.22-5.76c2.19-1.5,4.4-2.24,6.61-2.24c0.78,0,1.59,0.15,2.41,0.44 c0.83,0.29,1.43,0.81,1.8,1.54c0.37,0.73,0.56,1.6,0.56,2.61c0,0.52-0.03,1.03-0.1,1.54c-0.07,0.5-0.23,1-0.49,1.49 c-1.46,1.66-2.68,3.2-3.66,4.63c-0.98,1.43-1.98,3.86-3,7.29c-1.02,3.43-1.79,6.29-2.29,8.58c-0.5,2.29-1.05,4.84-1.63,7.63 c4.98,1.27,9.23,3.9,12.75,7.9c3.53,4,5.54,8.52,6.02,13.56c-0.16,2.34-0.44,4.63-0.83,6.85 C269.3,89.15,268.44,90.07,267.11,89.68z M240.33,67.39c-3.25,0-6.69,1.1-10.32,3.29c-3.63,2.19-6.58,5.16-8.85,8.9 c1.66,0.46,3.28,0.79,4.88,1c1.59,0.21,4.42,0.32,8.49,0.32c4.88,0,9.62-0.11,14.24-0.32c4.62-0.21,8.37-0.64,11.27-1.29 c-1.01-2.67-2.7-5.18-5.07-7.54c-2.37-2.36-5.06-3.54-8.05-3.54c-1.98,2.99-4.83,5.63-8.54,7.93 c-3.71,2.29-8.11,3.44-13.22,3.44c3.32-2.05,6.68-4.15,10.1-6.29C237.18,71.83,238.87,69.86,240.33,67.39z"/><path class="st0" d="M309.05,89.68h-5.02c-3.06,6.63-6,12.01-8.83,16.14c-2.83,4.13-6.44,7.46-10.83,10 c-4.39,2.54-9.92,3.8-16.58,3.8c-2.86,0-5.09-0.37-6.68-1.1c-1.59-0.73-3.45-2.13-5.58-4.19c-2.13-2.06-3.81-4.43-5.05-7.1 c-1.24-2.67-2.26-7.43-3.07-14.29l0.44-3.17c0.78,0.39,1.54,1.62,2.27,3.68c0.73,2.06,1.73,5.03,3,8.9 c2.47,5.53,5.22,8.66,8.24,9.39c3.02,0.73,5.55,1.11,7.58,1.15c2.03,0.03,3.5,0.08,4.41,0.15c4.81,0,9.55-2.67,14.22-8 c4.67-5.33,7-10.55,7-15.66c-5.14,0-8.79-1.05-10.95-3.15c-2.16-2.1-3.24-4.92-3.24-8.46c0-2.54,1.06-6.01,3.2-10.44 c2.13-4.42,4.85-6.63,8.17-6.63c4.55,0,7.95,3.11,10.19,9.32c1.46,6.37,2.23,9.72,2.29,10.05h4.83V89.68z M289.93,74.32 c-0.59,0.52-0.88,1.19-0.88,2c0,0.91,0.43,1.78,1.29,2.61c0.86,0.83,1.96,1.24,3.29,1.24c0.55,0,1.04-0.05,1.46-0.15 c0.42-0.1,0.63-0.57,0.63-1.41c0-1.82-0.5-3.08-1.49-3.78c-0.99-0.7-1.86-1.05-2.61-1.05 C291.05,73.78,290.49,73.96,289.93,74.32z"/><path class="st0" d="M328.46,71.39c0,5.07-0.68,10.1-2.05,15.09c-1.37,4.99-3.95,7.49-7.75,7.49c-0.52,0-1.43-0.72-2.73-2.15 c-1.3-1.43-2.39-2.15-3.27-2.15h-6.34v-9.61h8.78c0.85,0,1.67,0.25,2.46,0.76c0.8,0.5,1.44,0.92,1.93,1.24 c0.19-2.67,0.37-5.61,0.54-8.83c0.16-3.22,0.24-6.23,0.24-9.02c0-3.35-0.3-6.32-0.9-8.9c-0.6-2.58-1.05-4.58-1.34-5.97 c-0.29-1.4-1.42-3.71-3.39-6.95c-1.97-3.24-2.95-6.09-2.95-8.56c0-2.41,0.89-4.45,2.66-6.15c1.77-1.69,3.58-2.54,5.44-2.54 c1.2,0,2.38,0.85,3.54,2.54c1.15,1.69,1.73,3.58,1.73,5.66c0,0.72-0.08,1.69-0.24,2.93c-0.16,1.24-0.21,2.1-0.15,2.58 c0,3.32,0.37,7.04,1.1,11.17c0.73,4.13,1.2,6.94,1.41,8.44c0.21,1.5,0.48,3.48,0.81,5.95C328.3,66.89,328.46,69.21,328.46,71.39 z"/><path class="st0" d="M337.34,43.05c-0.26-1.69-0.79-3-1.59-3.93s-1.6-1.89-2.41-2.9c-0.32-2.93,0.59-5.6,2.76-8.02 c2.16-2.42,4.41-3.63,6.75-3.63c1.72,0,2.93,0.76,3.63,2.29c0.7,1.53,0.95,2.8,0.76,3.8c-0.46,1.59-0.94,3.28-1.44,5.07 c-0.51,1.79-0.76,3.76-0.76,5.9c0,4.32,0.46,9.85,1.39,16.58c0.93,6.73,1.39,11.85,1.39,15.36c0,2.8-1.63,6.8-4.88,12.02 c-3.25,5.22-7.58,8.59-12.97,10.12c2.93-3.58,4.97-6.43,6.12-8.56c1.15-2.13,1.97-4.21,2.44-6.24c0.47-2.03,0.77-3.76,0.9-5.19 c0.13-1.43,0.19-2.81,0.19-4.15c0-1.2-0.07-2.73-0.19-4.58c-0.13-1.85-0.26-3.54-0.39-5.07L337.34,43.05z"/><path class="st0" d="M418.64,97.24c-0.07,1.53-0.5,4.06-1.32,7.58c-0.81,3.53-3.78,7.51-8.9,11.95 c-5.12,4.44-11.93,8.09-20.41,10.95c-8.49,2.86-16.49,4.29-24,4.29c-3.35,0-7.28-0.59-11.8-1.76 c-4.52-1.17-9.03-4.15-13.53-8.95c-4.5-4.8-6.76-10.95-6.76-18.46c0-2.41,0.22-4.63,0.66-6.66c0.44-2.03,0.71-3.23,0.81-3.58 c0.1-0.36,0.78-1.3,2.05-2.83c0.26,0.71,0.39,1.77,0.39,3.17c0,0.75-0.03,2.06-0.1,3.95c-0.07,1.89-0.1,2.86-0.1,2.93 c0,1.63,0.03,2.93,0.1,3.93c0.07,0.99,0.5,2.82,1.29,5.49c0.8,2.67,2.97,5.38,6.51,8.14c3.54,2.76,7.23,4.54,11.05,5.34 c3.82,0.8,7.29,1.2,10.41,1.2c9.79,0,19.13-2.45,28.02-7.34c8.89-4.89,14.77-11.57,17.63-20.02c0.39-1.14-0.23-2.79-1.85-4.95 c-1.63-2.16-2.44-4.01-2.44-5.54c0-0.52,0.13-1.24,0.39-2.17c0.26-0.93,0.82-1.69,1.68-2.29c0.86-0.6,1.89-0.9,3.1-0.9 c0.55,0,1.39,0.16,2.51,0.49c1.12,0.33,2.32,1.63,3.59,3.93c1.27,2.29,1.9,4.77,1.9,7.44 C419.52,94.15,419.23,95.71,418.64,97.24z M394.55,63c1.72,0,3.09,0.59,4.1,1.76c1.01,1.17,1.51,2.46,1.51,3.85 c0,1.59-0.37,2.79-1.1,3.58c-0.73,0.8-1.98,1.2-3.73,1.2c-1.66,0-3-0.51-4.02-1.54c-1.02-1.02-1.54-2.11-1.54-3.24 c0-1.33,0.56-2.6,1.68-3.8C392.57,63.6,393.61,63,394.55,63z"/><path class="st0" d="M420.35,116.75c7.71-1.14,14.37-4.28,20-9.41c5.62-5.14,8.44-11.22,8.44-18.24c-0.81,0-2.21,0.24-4.19,0.73 c-1.98,0.49-3.32,0.73-4,0.73c-0.46,0-1.8-0.2-4.02-0.59c-2.23-0.39-3.88-1.63-4.95-3.73c-1.07-2.1-1.61-5.24-1.61-9.44 c0-6.47,1.5-11.2,4.49-14.19c2.99-2.99,6.1-4.49,9.32-4.49c4.52,0,8.18,2.5,10.97,7.49c2.8,4.99,4.19,11.01,4.19,18.07 c0,11.44-4.03,21.09-12.09,28.95c-8.06,7.85-17.07,11.78-27.02,11.78c-3.61,0-7.81-0.56-12.61-1.68 c-4.8-1.12-9.12-3.54-12.97-7.24c-3.85-3.71-6.88-6.85-9.1-9.44c-2.21-2.58-3.68-4.97-4.41-7.15c-0.73-2.18-1.2-3.63-1.39-4.37 c-0.2-0.73-0.29-1.2-0.29-1.39c0-0.72,0.26-0.98,0.78-0.78c0.55,0.06,0.88,0.43,0.98,1.1c0.1,0.67,0.18,1.26,0.24,1.78 c2.93,4.39,5.44,7.55,7.53,9.49c2.1,1.93,4.99,4.09,8.68,6.46c3.69,2.37,7.02,3.94,10,4.71c2.97,0.76,5.86,1.15,8.66,1.15 C417.36,117.04,418.82,116.94,420.35,116.75z M442.2,68.61c-1.46,0-2.47,1.02-3.02,3.07c-0.32,2.41-0.52,3.84-0.58,4.29 c-0.13,1.01,0.36,2.13,1.46,3.37c1.11,1.24,2.15,1.79,3.12,1.66c2.02-0.26,3.34-0.72,3.98-1.39c0.63-0.67,0.95-1.5,0.95-2.51 c-0.07-0.75-0.1-1.25-0.1-1.51c0-1.14-0.54-2.63-1.61-4.49C445.32,69.24,443.92,68.42,442.2,68.61z"/><path class="st0" d="M492.39,89.68c-0.46-0.13-0.97-0.21-1.54-0.24c-0.57-0.03-1.81-0.05-3.73-0.05c-1.46,0-2.51,0.16-3.15,0.49 c-0.63,0.32-1.82,1.65-3.56,3.97c-1.74,2.32-4.17,4.02-7.29,5.1l-0.49-1.51c0.65-1.27,1.85-3.06,3.61-5.37 c1.3-2.67,1.95-6.7,1.95-12.1l-5.37-30.04c-1.14-1.92-2.33-3.98-3.56-6.19c-1.24-2.21-1.85-4.37-1.85-6.49 c0-3.35,0.93-5.87,2.8-7.56c1.87-1.69,3.67-2.54,5.39-2.54c1.33,0,2.38,0.67,3.15,2c0.76,1.33,1.15,2.96,1.15,4.88 c0,1.27-0.26,3.44-0.78,6.51c-0.52,3.07-0.75,4.97-0.68,5.68c0.85,5.85,1.8,11.31,2.88,16.39c1.07,5.07,1.96,8.93,2.66,11.58 c0.7,2.65,1.21,4.61,1.54,5.88h6.88V89.68z"/><path class="st0" d="M513.94,87.39c-1.59-1.53-2.62-2.29-3.07-2.29c-0.42,0-1.43,0.76-3.02,2.29c-1.59,1.53-2.59,2.29-2.98,2.29 h-15.36v-9.61h9.75c1.33-0.13,2.3-0.39,2.9-0.78c0.6-0.39,1.37-0.83,2.32-1.32c-2.02-0.2-4.02-0.42-6-0.68 c-2.93-0.59-4.39-1.89-4.39-3.9c0-2.11,0.85-3.71,2.54-4.78s3.77-2.24,6.24-3.51c1.14-0.78,2.55-2.22,4.24-4.32 c1.69-2.1,3.17-3.15,4.44-3.15c1.72,0,3.41,1.07,5.05,3.19s2.98,3.55,4.02,4.27c1.76,1.01,3.53,2.02,5.32,3.02 c1.92,1.33,2.88,3.09,2.88,5.27c0,2.08-1.08,3.33-3.24,3.76c-2.16,0.42-4.41,0.7-6.75,0.83c0.62,0.42,1.24,0.83,1.88,1.22 c0.63,0.39,1.81,0.68,3.54,0.88h9.61v9.61h-16.78C516.58,89.68,515.54,88.92,513.94,87.39z M510.26,67.25 c-0.28,1.24-0.81,1.95-1.61,2.15c-0.8,0.2-1.86,0.53-3.19,1c-1.33,0.47-2,0.9-2,1.29c0,0.55,0.8,0.96,2.39,1.22 c1.59,0.26,3.4,0.49,5.41,0.68c1.07,0,2.67-0.2,4.8-0.59c2.13-0.39,3.19-0.89,3.19-1.51c0-0.26-0.46-0.61-1.37-1.05 c-0.91-0.44-1.89-0.77-2.95-1c-1.06-0.23-1.79-0.96-2.19-2.19c-0.41-1.24-0.81-1.85-1.2-1.85 C510.97,65.39,510.54,66.01,510.26,67.25z"/><path class="st0" d="M561.45,89.68h-9.9c-0.59,0.2-1.07,0.29-1.46,0.29c-0.75,0-1.63-0.75-2.66-2.24 c-1.02-1.5-1.94-2.62-2.76-3.37c-0.94,1.76-1.69,3.08-2.24,3.97c-0.55,0.89-1.4,1.34-2.54,1.34h-9.17v-9.61h4.78 c5.17,0,8.12-1.45,8.85-4.34c0.73-2.89,2.04-4.34,3.93-4.34c0.26,0,1.31,1.45,3.15,4.34c1.84,2.89,4.12,4.34,6.85,4.34h3.17 V89.68z M534.48,51.34c0-1.14,0.52-2.23,1.56-3.27c1.04-1.04,2.39-1.56,4.05-1.56c1.72,0,2.95,0.4,3.68,1.2 c0.73,0.8,1.1,2.01,1.1,3.63c0,1.4-0.48,2.67-1.44,3.83c-0.96,1.15-2.33,1.73-4.12,1.73c-0.94,0-1.98-0.59-3.12-1.78 C535.05,53.94,534.48,52.68,534.48,51.34z M547.55,51.34c0-1.14,0.52-2.23,1.56-3.27c1.04-1.04,2.39-1.56,4.05-1.56 c1.89,0,3.15,0.46,3.8,1.37c0.65,0.91,0.98,2.07,0.98,3.46c0,1.92-0.66,3.33-1.98,4.22c-1.32,0.89-2.79,1.34-4.41,1.34 c-0.91-0.32-1.8-0.84-2.68-1.54C547.99,54.67,547.55,53.33,547.55,51.34z"/><path class="st0" d="M581.69,71.39c0,5.07-0.68,10.1-2.05,15.09c-1.37,4.99-3.95,7.49-7.75,7.49c-0.52,0-1.43-0.72-2.73-2.15 c-1.3-1.43-2.39-2.15-3.27-2.15h-6.34v-9.61h8.78c0.85,0,1.67,0.25,2.46,0.76c0.8,0.5,1.44,0.92,1.93,1.24 c0.19-2.67,0.37-5.61,0.54-8.83c0.16-3.22,0.24-6.23,0.24-9.02c0-3.35-0.3-6.32-0.9-8.9c-0.6-2.58-1.05-4.58-1.34-5.97 c-0.29-1.4-1.42-3.71-3.39-6.95c-1.97-3.24-2.95-6.09-2.95-8.56c0-2.41,0.89-4.45,2.66-6.15c1.77-1.69,3.58-2.54,5.44-2.54 c1.2,0,2.38,0.85,3.54,2.54c1.15,1.69,1.73,3.58,1.73,5.66c0,0.72-0.08,1.69-0.24,2.93c-0.16,1.24-0.21,2.1-0.15,2.58 c0,3.32,0.37,7.04,1.1,11.17c0.73,4.13,1.2,6.94,1.41,8.44c0.21,1.5,0.48,3.48,0.81,5.95 C581.53,66.89,581.69,69.21,581.69,71.39z"/><path class="st0" d="M590.57,43.05c-0.26-1.69-0.79-3-1.59-3.93s-1.6-1.89-2.41-2.9c-0.32-2.93,0.59-5.6,2.76-8.02 c2.16-2.42,4.41-3.63,6.75-3.63c1.72,0,2.93,0.76,3.63,2.29c0.7,1.53,0.95,2.8,0.76,3.8c-0.46,1.59-0.94,3.28-1.44,5.07 c-0.51,1.79-0.76,3.76-0.76,5.9c0,4.32,0.46,9.85,1.39,16.58c0.93,6.73,1.39,11.85,1.39,15.36c0,2.8-1.63,6.8-4.88,12.02 c-3.25,5.22-7.58,8.59-12.97,10.12c2.93-3.58,4.97-6.43,6.12-8.56c1.15-2.13,1.97-4.21,2.44-6.24c0.47-2.03,0.77-3.76,0.9-5.19 c0.13-1.43,0.19-2.81,0.19-4.15c0-1.2-0.07-2.73-0.19-4.58c-0.13-1.85-0.26-3.54-0.39-5.07L590.57,43.05z"/></g></g></switch></svg>