<svg version="1.1" id="svg2" xmlns="http://www.w3.org/2000/svg" x="0px" y="0px" viewBox="0 0 1033.3 387.5" style="enable-background:new 0 0 1033.3 387.5" xml:space="preserve"><style>.st0{fill:#1F7632}</style><g id="g14"><path id="path22" class="st0" d="M981.8,135.9l6.3-10.1l5.8,9.7l-0.9,3.2l1.8,40.5c0,0,2.2,5.5,4.9,6.9c2.7,1.4,4.5,3.2,4.5,3.2 s-4,8.3-7.2,7.4c-3.1-2.3-7.6-5.5-7.6-12.9c-0.9-7.8-2.2-37.7-2.2-37.7S987.7,144.2,981.8,135.9"/><path class="st0" d="M969.7,176.4c-2.7,3.2-4-1.4-4-1.4s0-30.8-0.5-35.4c0.5-1.8-1.3-6-1.3-6l-6.3-8.3l-6.7,10.1l8.5,9.2v33.6 c-0.5,9.2-7.2,11-9.9,11c-4.5,0.5-8.1-3.2-9.4-5.5c0-3.7-4.9-2.3-4.9-2.3s-6.3,6.4-8.1,6.4c-11.7,6.4-15.7-3.7-15.7-3.7 s0.5-36.3,0-44.2c0.9-9.7-5-17.5-5-17.5s-5.8,8.8-9,15.2c6.7,5.1,6.7,7.8,6.7,7.8v38.6l-4.9,7.4l9.4,8.7l2.2-2.3c0,0,3.6-0.4,9-0.4 c6.7,0,10.3-3.7,11.2-6.5c2.2-3.7,5.8,0.9,6.7,2.8c0,3.2,3.6,3.2,3.6,3.2s5.8-0.5,8.1-0.5s5.4-1.8,7.2-5.1c4-5.5,4,2.3,5.8,3.7 c1.8,5.1,7.2,2.8,9.4,1.4c2.7-2.3,8.1-9.7,9.4-15.2C981.8,169,972.8,173.6,969.7,176.4z M967,184.6c0,0,8.1-6.4,8.5,0.9 C975.1,188.8,969.7,193.8,967,184.6z"/><path id="path34" class="st0" d="M864.2,127.1c0,0,4.9-2.3,4,1.8c-2.2,2.8-16.6,18.9-5.8,36.3c3.6,3.7,16.6,15.6,25.6,11 c3.1,0.9,10.8,5.5,1.3,12c-4,0.5-18.4-0.5-18.4-0.5l-9.4,12.9l-3.1-1.4l-0.5-6h-17.1c0,0,1.8-11,9.4-10.6c4.9,1.4,10.3,3.2,15.3,0 c-1.4-2.8-1.8-4.6-4-6.4c-2.2-3.2-15.7-21.2-5.8-38.2C860.1,132.6,864.2,127.1,864.2,127.1"/><path id="path38" class="st0" d="M832.7,184.2l4,5.1c0,0,11.7-14.3-0.9-15.6c-4.5,2.8-16.6,10.1-18,15.2 c-1.3,5.5-5.4,14.3-0.4,20.7c0.9,2.3,2.2,8.7-6.3,4.1c-4-1.4-11.7-13.3-13-12.9c0.5,5.5,3.6,23.5,24.3,25.3c3.6,0,13-0.5,2.2-12.9 c-4-6-9.4-11-1.8-22.1C826.9,186.9,830,183.3,832.7,184.2"/><path class="st0" d="M800.4,126.2l-6.3,9.2l7.2,9.7c0,0-0.9,13.3-0.9,17c-1.4-0.5-9.4,3.2-9.4,3.2s-9.4,15.2-10.3,22.1 c-0.5,17.5,17.1,7.8,17.1,7.8l7.2-11.5l0.9-47.4L800.4,126.2z M794.6,188.8c-2.7,1.8-8.1-1.4-9-6.4c0,0-0.9-11.5,11.2-8.3 C799,177.3,803.1,184.6,794.6,188.8z"/><path id="path50" class="st0" d="M928.4,208.6l4.5-5.5l5.4,6.4l-4.9,4.6L928.4,208.6z"/><path id="path54" class="st0" d="M770.3,136.3l4.5-5.5l5.4,6.4l-4.9,4.6L770.3,136.3z"/><path id="path58" class="st0" d="M770.8,148.8l4.5-5.5l5.4,6.4l-4.9,4.6L770.8,148.8z"/><path id="path62" class="st0" d="M582.6,212.2l4.5-5.5l5.4,6.4l-4.9,4.6L582.6,212.2z"/><path id="path66" class="st0" d="M567.8,212.2l4.5-5.5l5.4,6.4l-4.9,4.6L567.8,212.2z"/><path id="path70" class="st0" d="M597.8,155.2l4.5-5.5l5.4,6.4l-4.9,4.6L597.8,155.2z"/><path id="path74" class="st0" d="M521,135.4l4.5-5.5l5.4,6.4l-4.9,4.6L521,135.4z"/><path id="path78" class="st0" d="M447.8,157.5l4.5-5.5l5.4,6.4l-4.9,4.6L447.8,157.5z"/><path id="path82" class="st0" d="M434.8,157.5l4.5-5.5l5.4,6.4l-4.9,4.6L434.8,157.5z"/><path id="path86" class="st0" d="M413.3,157.5l4.5-5.5l5.4,6.4l-4.9,4.6L413.3,157.5z"/><path id="path90" class="st0" d="M354,212.7l4.5-5.5l5.4,6.4l-4.9,4.6L354,212.7z"/><path id="path94" class="st0" d="M340.5,212.7l4.5-5.5l5.4,6.4l-4.9,4.6L340.5,212.7z"/><path id="path98" class="st0" d="M300.5,146l4.5-5.5l5.4,6.4l-4.9,4.6L300.5,146z"/><path id="path102" class="st0" d="M209.4,214.5l4.5-5.5l5.4,6.4l-4.9,4.6L209.4,214.5z"/><path id="path106" class="st0" d="M98.4,213.2l4.5-5.5l5.4,6.4l-4.9,4.6L98.4,213.2z"/><path id="path110" class="st0" d="M85.4,213.2l4.5-5.5l5.4,6.4l-4.9,4.6L85.4,213.2z"/><path id="path114" class="st0" d="M35.6,146l4.5-5.5l5.4,6.4l-4.9,4.6L35.6,146z"/><path id="path118" class="st0" d="M35.6,133.6l4.5-5.5l5.4,6.4l-4.9,4.6L35.6,133.6z"/><path id="path122" class="st0" d="M190.5,157l4.5-5.5l5.4,6.4l-4.9,4.6L190.5,157z"/><path id="path126" class="st0" d="M184.2,140.9l4.5-5.5l5.4,6.4l-4.9,4.6L184.2,140.9z"/><path id="path130" class="st0" d="M177.5,156.6l4.5-5.5l5.4,6.4l-4.9,4.6L177.5,156.6z"/><path id="path134" class="st0" d="M301,133.9l4.5-5.5l5.4,6.4l-4.9,4.6L301,133.9z"/><path id="path138" class="st0" d="M521.5,147.8l4.5-5.5l5.4,6.4l-4.9,4.6L521.5,147.8z"/><path id="path142" class="st0" d="M740.2,137.3l9.9-12l-1.3,57.5l5.4,6l-5.8,7.8l-5.4-6.9l1.3-43.3 C744.3,146.5,743.8,140,740.2,137.3"/><path id="path146" class="st0" d="M721.3,137.3l5.4-10.6c0,0,6.3,4.6,5.4,11c0,7.4-0.5,46.5-0.5,46.5s0.9,10.6-7.6,12.4 c-2.2,0.9-5.4,1.4-5.4,1.4s-10.8,27.1-27.8,34c-3.1,1.8-25.1,16.6-49-11.5c7.6,4.1,32.3,19.3,52.5,0c5.8-3.7,16.6-17.5,18.9-20.7 c-2.7-0.5-14.4-0.9-14.4-0.9s-9.4,0.9-8.5-9.2c2.2-6.4,8.1-23,20.7-12.4c5.4,5.5,8.1,7.4,7.6,8.7c-0.4,1.4,5.8,8.3,8.1-0.9 c1.3-9.7,0.4-41.9,0.4-41.9S727.6,140.9,721.3,137.3"/><path id="path150" d="M705.2,189.7c0,0-12.1,6.9-7.6-6.9C700.7,181.4,710.6,182.8,705.2,189.7" style="fill:#FFFFFF"/><path class="st0" d="M555.2,177.7c-2.2,5.1-5.4,7.4-5.4,7.4s-13.5,6.9-7.6-6c4-3.7,7.2-6,7.2-6S556.5,168.1,555.2,177.7z M680.5,177.7c-0.9-1.8-11.2-10.6-15.3-12.9c4.5-2.3,6.3-18,6.7-20.7c0.4-2.8-1.4-13.3-3.1-16.1c-16.6-5.5-14.4,9.7-14.4,9.7 c0.9,6.9,7.6,5.1,10.8,4.1c6.3,15.7-3.1,23.5-8.5,24.9c-7.2-2.3-35.9,23-35.9,23s-8.1-3.2-10.3-6.4c1.4-8.7-4.5-2.3-7.2,0.5 c-14.8,14.3-18.4,0.9-18.9-3.2c0-4.6-3.6-0.9-5.8,1.4c-12.6,18-18.4-0.9-18.4-0.9l-2.7-59.4c0,0-6.7,8.7-9,10.6 c2.2,2.8,5.8,12.4,6.7,18.4c0.9,11.5-6.3,17.5-9.9,19.3c-7.2,7.8-14.8,6-20.7,5.5c-9.4,0-9,5.5-9.9,11c1.3,6,5.8,4.6,9.9,2.8 c8.5-2.8,13.9,6,15.7,9.7c0.5,3.7,4,0,4,0l9.9-10.1l5.8,9.2l8.5,1.4l10.3-6.5l6.3,7.4l10.8-0.5l10.3-9.7l5.8,10.6h62 c0,0,6.3-6.5,9-11.5C686.3,184.2,683.2,179.6,680.5,177.7z M628.8,189.2c0,0,21.6-19.8,28.3-14.7c-0.5,3.2-7.6,15.2-7.6,15.2 L628.8,189.2z M671.9,188.8c-4,0.9-19.3,0-19.3,0l5.4-11c0,0,4.5-3.7,9.9,0C672.8,183.3,675.1,188.8,671.9,188.8z"/><path class="st0" d="M492.8,127.1l-8.5,10.1l4.9,6c0,0,1.8,30.8,0.9,37.7c-4.5,23-15.7-1.4-15.7-1.4l-1.3-54.3l-9.4,12.9l4.5,4.6 c0,0,0.4,24.8,1.8,37.3c-11.7,20.7-20.7,3.7-22.4,0.5c-22.5,19.3-25.2,3.7-27.4-0.5c-18.4,20.7-24.7,4.1-25.6,0 c-8.1-14.7-15.3-4.6-19.3-1.4c-14.8,22.1-18.4,2.8-20.7-0.5c-22,26.2-23.3-1.4-23.3-1.4l2.2-35.4c0,0-0.5-10.1-1.3-14.7 c-6.3-6.9-9,10.1-7.2,16.1c7.2,14.7-0.9,21.2-0.9,21.2s-4,3.2-9.4,7.8c-7.6,6-9.9,7.8-13.5,6c-8.1-6.9-9,0.9-12.1,5.5 c-3.1,5.1,0.9,7.4,5.4,6.4c4.9-2.3,18.4,11.5,21.6,14.3c0-3.2,6.3-12,10.3-14.3c10.8,19.8,22.5,4.6,25.1-0.9 c8.5,18.9,16.2,7.4,19.8,4.6c11.2,17,24.2,5.5,24.2,5.5h10.8c0,0,5.8-3.2,10.3-6.9c7.6,17.5,20.7,5.1,25.6,0 c9,18.9,23.8,3.2,27.4-0.5c20.2,25.8,26.5-7.4,26.5-7.4L492.8,127.1z M317.6,191.1l-8.1-6.4l10.8-11c0,0,4.9-6.4,5.4,2.3l0.5,4.6 L317.6,191.1z M377.8,186.9c0,0,11.2-12.9,11.2,0.5C388.1,191.1,381.4,196.6,377.8,186.9z"/><path id="path182" class="st0" d="M258.3,133.6l5.4-7.8c0,0,5.8,6,4.5,15.2c0.4,9.7-0.4,39.6-0.4,39.6s3.1,9.7,5.4,10.6 c-1.3,2.3-4.5,6.9-4.5,6.9s-8.1-1.4-7.2-14.7c0-13.3,1.8-38.7,1.8-38.7S261,136.3,258.3,133.6"/><path id="path186" class="st0" d="M233.2,135.4l9.4-9.2l3.6,51.1c0,0-0.9,23.5-19.8,23.5c-4-1.8-12.1-17-16.6-6.4 c-1.3,3.7-9.9,6-12.1,3.2c-2.7,0.5-5.4-0.9-5.4,1.8c-1.3,0.9-11.2,3.7-13.9-6c-3.1,3.2-18.9,15.6-27.4-1.4 c-3.6,1.4-26.5,8.7-12.1,20.7c4.5,5.1,7.2,7.8,5.8,22.1c-1.3,2.3-28.7,6.9-32.3-27.1c3.1,4.1,12.6,20.7,22.5,19.3 c1.8-0.5,2.7-2.3,2.7-2.3s-15.3-11-1.3-30.4c9.4-7.4,23.8-18.9,27.4-12.9c-2.2,2.8-9.9,18.4,11.7,5.5c4.5-2.3,6.7-7.4,6.7-1.4 c1.8,2.3,3.1,17,13.9-3.2c2.7,5.1,8.5,14.7,21.6,0c2.7,3.2,20.2,21.6,22.5-1.8c-0.5-17.5,0.4-35,0.4-35L233.2,135.4z"/><path class="st0" d="M116.2,174.2l-3.6,6.4c6.3,12.4-1.4,10.1-1.4,10.1s-24.2,0.5-33.7,0c-10.3,0.5-8.5-6-8.5-6s0.9-47.4,0.5-55.2 c-7.6-13.8-11.2,8.8-11.2,8.8s4,6,5.8,9.2c0,3.2-3.2,13.3-3.2,13.3s-9.9,11.5-13,14.7c-3.2,3.2-3.1,4.1-6.3,2.8 c-14.8-11-12.1,10.6-11.7,14.7c10.3-6.9,19.8,6,22,8.3c0-4.1,8.5-10.1,11.2-12.4c0,10.6,12.1,12.4,12.1,12.4l40.4-0.9l8.1-14.7 L116.2,174.2z M56.9,188.4c-2.7,5.5-8.5-1.8-8.5-1.8s4.5-7.8,8.1-14.7c8.5-8.3,6.7-0.5,7.6,4.2C63.2,183.8,61.4,185.2,56.9,188.4z"/><path id="path198" class="st0" d="M16.4,296l0.2-38.2l10,0.1L26.4,296L16.4,296z"/><path id="path202" class="st0" d="M39,268.1h0.1c0.6-1.9,3.7-3,6.1-3c5.7,0,5.9,3.2,5.9,6.7l-0.1,24.4l-9-0.1l0.1-23.9 c0-0.8-0.4-1.6-1.6-1.6c-1.2,0-1.6,0.8-1.6,1.6l-0.1,23.9l-9-0.1l0.2-30.7l9,0.1L39,268.1z"/><path id="path206" class="st0" d="M53.8,263.8l0-5.8l9,0.1l0,5.8L53.8,263.8z M53.6,296.2l0.2-30.7l9,0.1l-0.2,30.7L53.6,296.2z"/><path id="path210" class="st0" d="M75.7,265.6l2.5,0l0,5l-2.5,0l-0.1,18.5c0,1,0.2,2.1,1.5,2.1l1.1,0l0,5.1l-4,0 c-6.4,0-7.5-1.5-7.5-6.3l0.1-19.4l-2.4,0l0-5l2.4,0l0-5.6l9,0.1L75.7,265.6z"/><path id="path214" class="st0" d="M80,263.9l0-5.8l9,0.1l0,5.8L80,263.9z M79.8,296.4l0.2-30.7l9,0.1l-0.2,30.7L79.8,296.4z"/><path id="path218" class="st0" d="M101.5,290.2c0,0.7,0.3,1.6,1.5,1.6c1.2,0,1.6-0.8,1.6-1.6l0.1-8.9l-1.6,0.8 c-1.3,0.9-1.6,1.1-1.6,2.4L101.5,290.2z M92.7,272.3c0-4.6,4.8-6.9,10.6-6.9c5.7,0,10.6,2.4,10.6,7l-0.1,17.9 c0,2.1,0.4,4.2,0.6,6.2l-9.1-0.1l-0.5-3.1h-0.1c-1.2,2.5-3.4,3.5-6,3.5c-4.5,0-6-2.1-6-5.6l0-6.6c0-7.7,12.2-4.7,12.2-11.4l0-1.2 c0-0.8-0.4-1.6-1.6-1.6c-1.2,0-1.6,0.8-1.6,1.6l0,4.4l-9-0.1L92.7,272.3z"/><path id="path222" class="st0" d="M127.5,265.9l2.5,0l0,5l-2.5,0l-0.1,18.5c0,1,0.2,2.1,1.5,2.1l1.1,0l0,5l-4,0 c-6.4,0-7.5-1.5-7.5-6.3l0.1-19.4l-2.4,0l0-5.1l2.4,0l0-5.6l9,0.1L127.5,265.9z"/><path id="path226" class="st0" d="M131.7,264.3l0-5.8l9,0.1l0,5.8L131.7,264.3z M131.5,296.7l0.2-30.7l9,0.1l-0.2,30.7L131.5,296.7 z"/><path id="path230" class="st0" d="M151.7,266.1l2.2,23.5h0.1l3-23.4l8.2,0.1l-6,30.7l-10.9-0.1l-5.8-30.7L151.7,266.1z"/><path id="path234" class="st0" d="M178.9,278.1l0-5.5c0-0.7-0.4-1.6-1.6-1.6c-1.2,0-1.6,0.8-1.6,1.6l0,5.5L178.9,278.1z M166.8,272.7c0-4.6,4.8-6.9,10.6-6.9c5.7,0,10.6,2.4,10.6,7l-0.1,9.9l-12.1-0.1l0,8c0,0.7,0.3,1.6,1.5,1.6c1.2,0,1.6-0.9,1.6-1.6 l0-5.9l9,0.1l0,5.6c0,4.6-5,6.9-10.6,6.9c-5.7,0-10.5-2.4-10.5-7L166.8,272.7z"/><path id="path238" class="st0" d="M199.5,297.1l0.2-38.2l12.5,0.1l4.5,24.8h0.1L217,259l7,0l-0.2,38.2l-10.7-0.1l-6.2-30.1 l-0.1,0.1l-0.2,30L199.5,297.1z"/><path id="path242" class="st0" d="M235.6,291.1c0,0.8,0.3,1.6,1.5,1.6c1.2,0,1.6-0.8,1.6-1.6l0.1-8.9l-1.6,0.8 c-1.3,0.9-1.6,1.1-1.6,2.4L235.6,291.1z M226.7,273.2c0-4.6,4.8-6.9,10.6-6.9c5.7,0,10.6,2.4,10.6,7l-0.1,17.9 c0,2.1,0.4,4.2,0.6,6.2l-9.1-0.1l-0.5-3.1h-0.1c-1.2,2.5-3.4,3.5-6,3.5c-4.5,0-6-2.1-6-5.6l0-6.6c0-7.7,12.2-4.7,12.2-11.4l0-1.2 c0-0.8-0.4-1.6-1.6-1.6c-1.2,0-1.6,0.8-1.6,1.6l0,4.4l-9-0.1L226.7,273.2z"/><path id="path246" class="st0" d="M260.7,266.8l2.5,0l0,5l-2.5,0l-0.1,18.5c0,1,0.2,2.1,1.5,2.1l1.1,0l0,5l-4,0 c-6.4,0-7.5-1.6-7.5-6.3l0.1-19.4l-2.4,0l0-5l2.4,0l0-5.6l9,0.1L260.7,266.8z"/><path id="path250" class="st0" d="M264.9,265.1l0-5.8l9,0.1l0,5.8L264.9,265.1z M264.7,297.6l0.2-30.7l9,0.1l-0.2,30.7L264.7,297.6 z"/><path id="path254" class="st0" d="M288.6,273.3c0-0.8-0.4-1.6-1.6-1.6c-1.2,0-1.6,0.9-1.6,1.6l-0.1,18.1c0,0.7,0.3,1.6,1.5,1.6 c1.2,0,1.6-0.8,1.6-1.6L288.6,273.3z M297.5,291.2c0,4.6-5,6.9-10.6,6.9c-5.7,0-10.5-2.4-10.5-7l0.1-17.6c0-4.6,4.8-6.9,10.6-6.9 c5.6,0,10.6,2.4,10.6,7L297.5,291.2z"/><path id="path258" class="st0" d="M308.9,269.8h0.1c0.6-1.9,3.7-3,6.1-3c5.7,0,5.9,3.2,5.9,6.7l-0.1,24.4l-9-0.1L312,274 c0-0.8-0.4-1.6-1.6-1.6c-1.2,0-1.6,0.8-1.6,1.6l-0.1,23.9l-9-0.1l0.2-30.7l9,0.1L308.9,269.8z"/><path id="path262" class="st0" d="M332.2,291.7c0,0.7,0.3,1.6,1.5,1.6c1.2,0,1.6-0.8,1.6-1.6l0.1-8.9l-1.6,0.8 c-1.3,0.9-1.6,1.1-1.6,2.4L332.2,291.7z M323.4,273.8c0-4.6,4.8-6.9,10.6-6.9c5.6,0,10.6,2.4,10.6,7l-0.1,17.9 c0,2.1,0.4,4.2,0.6,6.2l-9.1-0.1l-0.5-3.1h-0.1c-1.2,2.5-3.4,3.5-6,3.5c-4.5,0-6-2.1-6-5.6l0-6.6c0-7.7,12.2-4.7,12.2-11.4l0-1.2 c0-0.8-0.4-1.6-1.6-1.6c-1.2,0-1.6,0.8-1.6,1.6l0,4.4l-9-0.1L323.4,273.8z"/><path id="path266" class="st0" d="M347,298.1l0.2-38.2l9,0.1l-0.2,38.2L347,298.1z"/><path id="path270" class="st0" d="M370.8,279.3l0-5.5c0-0.8-0.4-1.6-1.6-1.6c-1.2,0-1.6,0.8-1.6,1.6l0,5.5L370.8,279.3z M358.7,274 c0-4.6,4.8-6.9,10.6-6.9c5.6,0,10.6,2.4,10.5,7l-0.1,9.9l-12.1-0.1l0,8c0,0.8,0.3,1.6,1.5,1.6c1.2,0,1.6-0.9,1.6-1.6l0-5.9l9,0.1 l0,5.6c0,4.6-5,6.9-10.6,6.9c-5.7,0-10.5-2.4-10.5-7L358.7,274z"/><path id="path274" class="st0" d="M402.8,274.5c0-0.8-0.4-1.6-1.6-1.6c-1.2,0-1.6,0.9-1.6,1.6l-0.1,17.1c0,0.8,0.3,1.6,1.5,1.6 c1.2,0,1.6-0.8,1.6-1.6L402.8,274.5z M399.6,270.9h0.1c0.6-2.1,2.8-3.6,5.5-3.6c5.6,0,6.5,3.5,6.5,6.9l-0.1,17.9 c0,3.4-1,6.7-6.5,6.7c-2.7,0-4.9-1.3-5.5-3.1h-0.1l-0.1,9.6l-9-0.1l0.2-37.6l9,0.1L399.6,270.9z"/><path id="path278" class="st0" d="M426.2,274.2c0-0.8-0.4-1.6-1.6-1.6c-1.2,0-1.6,0.8-1.6,1.6l-0.1,18.1c0,0.8,0.3,1.6,1.5,1.6 c1.2,0,1.6-0.8,1.6-1.6L426.2,274.2z M435,292.1c0,4.6-5,6.9-10.6,6.9c-5.7,0-10.5-2.4-10.5-7l0.1-17.6c0-4.6,4.8-6.9,10.6-6.9 c5.6,0,10.6,2.4,10.6,7L435,292.1z"/><path id="path282" class="st0" d="M452.1,295.3l-0.1,0c0,2.1-3.1,3.8-5.7,3.8c-4.7,0-6.3-2.3-6.3-5.5l0.2-25.6l9,0.1l-0.1,23.9 c0,0.8,0.3,1.6,1.5,1.6c1.2,0,1.6-0.8,1.6-1.6l0.1-23.9l9,0.1l-0.2,30.7l-9-0.1L452.1,295.3z"/><path id="path286" class="st0" d="M474.7,270.8l0.1,0c1.4-1.9,3.3-3,6.4-3c4.4,0,5.6,2.1,5.5,5.4l-0.1,11.5l-9-0.1l0.1-9.7 c0-0.7-0.4-1.6-1.6-1.6c-1.2,0-1.6,0.8-1.6,1.6l-0.1,23.9l-9-0.1l0.2-30.7l9,0.1L474.7,270.8z"/><path id="path290" class="st0" d="M498,299l0.2-38.2l9,0.1l-0.2,38.2L498,299z"/><path id="path294" class="st0" d="M521.8,280.3l0-5.5c0-0.8-0.4-1.6-1.6-1.6c-1.2,0-1.6,0.8-1.6,1.6l0,5.5L521.8,280.3z M509.7,274.9c0-4.6,4.8-6.9,10.6-6.9c5.6,0,10.6,2.4,10.5,7l-0.1,9.9l-12.1-0.1l0,8c0,0.8,0.3,1.6,1.5,1.6c1.2,0,1.6-0.8,1.6-1.6 l0-5.9l9,0.1l0,5.6c0,4.6-5,6.9-10.6,6.9c-5.7,0-10.5-2.4-10.5-7L509.7,274.9z"/><path id="path298" class="st0" d="M557.5,293.9l1.8,0c1.6,0,1.8-1.4,1.8-2.5l0.1-22.2c0-1.1-0.2-2.5-1.8-2.5l-1.8,0L557.5,293.9z M547.7,261.1l11.7,0.1c6.1,0,11.7,1.9,11.7,7.1l-0.1,24.3c0,5.1-5.6,6.9-11.8,6.9l-11.7-0.1L547.7,261.1z"/><path id="path302" class="st0" d="M585.2,280.7l0-5.5c0-0.8-0.4-1.6-1.6-1.6c-1.2,0-1.6,0.9-1.6,1.6l0,5.5L585.2,280.7z M580.7,266.3l6.7-7.2l6.9,0l-9.7,7.2L580.7,266.3z M573.1,275.3c0-4.6,4.8-6.9,10.6-6.9c5.6,0,10.6,2.4,10.5,7l-0.1,9.9l-12.1-0.1 l0,8c0,0.8,0.3,1.6,1.5,1.6c1.2,0,1.6-0.9,1.6-1.6l0-5.9l9,0.1l0,5.6c0,4.6-5,6.9-10.6,6.9c-5.7,0-10.5-2.4-10.5-7L573.1,275.3z"/><path id="path306" class="st0" d="M605.1,269l2.2,23.5h0.1l3-23.4l8.2,0l-6,30.7l-10.9-0.1l-5.8-30.7L605.1,269z"/><path id="path310" class="st0" d="M630.2,281l0-5.5c0-0.8-0.4-1.6-1.6-1.6c-1.2,0-1.6,0.9-1.6,1.6l0,5.5L630.2,281z M618.1,275.6 c0-4.6,4.8-6.9,10.6-6.9c5.6,0,10.6,2.4,10.5,7l-0.1,9.9l-12.1-0.1l-0.1,8c0,0.8,0.3,1.6,1.5,1.6c1.2,0,1.6-0.8,1.6-1.6l0-5.9 l9,0.1l0,5.6c0,4.6-5,6.9-10.6,6.9c-5.7,0-10.5-2.4-10.5-7L618.1,275.6z"/><path id="path314" class="st0" d="M643,299.9l0.2-38.2l9,0.1L652,300L643,299.9z"/><path id="path318" class="st0" d="M666.9,275.7c0-0.8-0.4-1.6-1.6-1.6c-1.2,0-1.6,0.8-1.6,1.6l-0.1,18.1c0,0.7,0.3,1.6,1.5,1.6 c1.2,0,1.6-0.8,1.6-1.6L666.9,275.7z M675.7,293.6c0,4.6-5,6.9-10.6,6.9c-5.7,0-10.5-2.4-10.5-7l0.1-17.6c0-4.6,4.8-6.9,10.6-6.9 c5.6,0,10.6,2.4,10.5,7L675.7,293.6z"/><path id="path322" class="st0" d="M690.5,276.3c0-0.7-0.4-1.6-1.6-1.6c-1.2,0-1.6,0.8-1.6,1.6l-0.1,17.1c0,0.8,0.3,1.6,1.5,1.6 c1.2,0,1.6-0.8,1.6-1.6L690.5,276.3z M687.4,272.7l0.1,0c0.6-2.1,2.8-3.6,5.5-3.6c5.6,0,6.5,3.5,6.5,6.9l-0.1,17.9 c0,3.4-1,6.7-6.5,6.7c-2.7,0-4.9-1.3-5.5-3.1h-0.1l-0.1,9.6l-9-0.1l0.2-37.6l9,0.1L687.4,272.7z"/><path id="path326" class="st0" d="M716.1,277.4c0-0.8-0.4-1.6-1.6-1.6c-1.2,0-1.6,0.9-1.6,1.6l-0.1,17.1c0,0.8,0.3,1.6,1.5,1.6 c1.2,0,1.6-0.8,1.6-1.6L716.1,277.4z M712.9,273.8h0.1c0.6-2.1,2.8-3.6,5.5-3.6c5.6,0,6.5,3.5,6.5,6.9L725,295c0,3.4-1,6.7-6.5,6.7 c-2.7,0-4.9-1.3-5.5-3.1h-0.1l-0.1,9.6l-9-0.1l0.2-37.6l9,0.1L712.9,273.8z"/><path id="path330" class="st0" d="M740.8,281.6l0-5.5c0-0.8-0.4-1.6-1.6-1.6c-1.2,0-1.6,0.8-1.6,1.6l0,5.5L740.8,281.6z M728.7,276.3c0-4.6,4.8-6.9,10.6-6.9c5.7,0,10.6,2.4,10.5,7l-0.1,9.9l-12.1-0.1l0,8c0,0.8,0.3,1.6,1.5,1.6c1.2,0,1.6-0.8,1.6-1.6 l0-5.9l9,0.1l0,5.6c0,4.6-5,6.9-10.6,6.9c-5.7,0-10.5-2.4-10.5-7L728.7,276.3z"/><path id="path334" class="st0" d="M761,272.7h0.1c1.4-2,2.4-3.1,6-3.1c3.2,0,4.7,0.7,5.8,3.2c1.6-2,2.6-3.2,6.2-3.1 c5.7,0,6.2,3.4,6.2,5.7l-0.1,25.4l-9-0.1l0.1-23.9c0-0.8-0.4-1.6-1.6-1.6c-1.2,0-1.6,0.9-1.6,1.6l-0.1,23.9l-9-0.1l0.1-23.9 c0-0.8-0.4-1.6-1.6-1.6c-1.2,0-1.6,0.8-1.6,1.6l-0.1,23.9l-9-0.1l0.2-30.7l9,0.1L761,272.7z"/><path id="path338" class="st0" d="M800.5,282l0-5.5c0-0.8-0.4-1.6-1.6-1.6c-1.2,0-1.6,0.8-1.6,1.6l0,5.5L800.5,282z M788.4,276.6 c0-4.6,4.8-6.9,10.6-6.9c5.6,0,10.6,2.4,10.5,7l-0.1,9.9l-12.1-0.1l-0.1,8c0,0.7,0.3,1.6,1.5,1.6c1.2,0,1.6-0.8,1.6-1.6l0-5.9 l9,0.1l0,5.6c0,4.6-5,6.9-10.6,6.9c-5.7,0-10.5-2.4-10.5-7L788.4,276.6z"/><path id="path342" class="st0" d="M823.5,273h0.1c0.6-1.9,3.7-3,6.1-3c5.7,0,5.9,3.2,5.9,6.7l-0.1,24.4l-9-0.1l0.1-23.9 c0-0.8-0.4-1.6-1.6-1.6c-1.2,0-1.6,0.9-1.6,1.6l-0.1,23.9l-9-0.1l0.2-30.7l9,0.1L823.5,273z"/><path id="path346" class="st0" d="M849.3,270.5l2.5,0l0,5.1l-2.5,0l-0.1,18.5c0,1,0.2,2.1,1.5,2.1l1.1,0l0,5l-4,0 c-6.4,0-7.5-1.6-7.5-6.3l0.1-19.4l-2.4,0l0-5l2.4,0l0-5.6l9,0.1L849.3,270.5z"/><path id="path350" class="st0" d="M862.7,301.3l0.2-38.2l10,0.1l-0.1,13.9l3.5,0l0.1-13.9l10,0.1l-0.2,38.2l-10-0.1l0.1-18.3 l-3.5,0l-0.1,18.3L862.7,301.3z"/><path id="path354" class="st0" d="M901.7,298.1h-0.1c0,2.1-3.1,3.8-5.7,3.8c-4.7,0-6.3-2.3-6.3-5.5l0.1-25.6l9,0.1l-0.1,23.9 c0,0.8,0.3,1.6,1.5,1.6c1.2,0,1.6-0.8,1.6-1.6l0.1-23.9l9,0.1l-0.2,30.7l-9-0.1L901.7,298.1z"/><path id="path358" class="st0" d="M923.7,273.7h0.1c1.4-2,2.4-3.1,6-3.1c3.2,0,4.7,0.7,5.8,3.2c1.6-2,2.6-3.2,6.2-3.1 c5.7,0,6.2,3.4,6.2,5.7l-0.1,25.4l-9-0.1l0.1-23.9c0-0.8-0.4-1.6-1.6-1.6c-1.2,0-1.6,0.9-1.6,1.6l-0.1,23.9l-9-0.1l0.1-23.9 c0-0.8-0.4-1.6-1.6-1.6c-1.2,0-1.6,0.8-1.6,1.6l-0.1,23.9l-9-0.1l0.2-30.7l9,0.1L923.7,273.7z"/><path id="path362" class="st0" d="M959.1,295.6c0,0.8,0.3,1.6,1.5,1.6c1.2,0,1.6-0.8,1.6-1.6l0.1-8.9l-1.6,0.8 c-1.3,0.9-1.6,1.1-1.6,2.4L959.1,295.6z M950.3,277.6c0-4.6,4.8-6.9,10.6-6.9c5.6,0,10.6,2.4,10.5,7l-0.1,17.9 c0,2.1,0.4,4.2,0.6,6.2l-9.1-0.1l-0.5-3.1h-0.1c-1.2,2.5-3.4,3.5-6,3.5c-4.5,0-6-2.1-6-5.6l0-6.6c0-7.7,12.2-4.7,12.2-11.4l0-1.2 c0-0.8-0.4-1.6-1.6-1.6c-1.2,0-1.6,0.8-1.6,1.6l0,4.4l-9-0.1L950.3,277.6z"/><path id="path366" class="st0" d="M976.6,269.5l0-5.8l9,0.1l0,5.8L976.6,269.5z M976.4,302l0.2-30.7l9,0.1l-0.2,30.7L976.4,302z"/><path id="path370" class="st0" d="M997.1,274.1h0.1c0.6-1.9,3.7-3,6.1-3c5.7,0,5.9,3.2,5.9,6.7l-0.1,24.4l-9-0.1l0.1-23.9 c0-0.8-0.4-1.6-1.6-1.6c-1.2,0-1.6,0.9-1.6,1.6l-0.1,23.9l-9-0.1l0.2-30.7l9,0.1L997.1,274.1z"/><path id="path372" d="M1017.2,332.8H16.1v-16.3h1001V332.8z" style="fill:#FF0000"/><path id="path374" class="st0" d="M1017.2,97.6H17.5V81.3h999.7V97.6z"/><path id="path376" d="M1033.3,387.5H0V0h1033.3V387.5z" style="fill:none;stroke:#000000;stroke-width:0.1333;stroke-miterlimit:5.3333"/></g></svg>